<?xml version="1.0" encoding="utf-8"?>
<!-- Generator: Adobe Illustrator 17.0.0, SVG Export Plug-In . SVG Version: 6.00 Build 0)  -->
<!DOCTYPE svg PUBLIC "-//W3C//DTD SVG 1.1//EN" "http://www.w3.org/Graphics/SVG/1.1/DTD/svg11.dtd">
<svg version="1.1" id="图层_1" xmlns="http://www.w3.org/2000/svg" xmlns:xlink="http://www.w3.org/1999/xlink" x="0px" y="0px"
	 width="170.667px" height="118px" viewBox="0 0 170.667 118" enable-background="new 0 0 170.667 118" xml:space="preserve">
<polygon fill="#9AE29C" points="28.697,16.801 26.199,50.29 37.704,50.29 39.553,17.828 "/>
<polygon fill="#065906" points="18.545,55.53 17.313,74.946 41.351,75.87 43.046,56.3 "/>
<polygon fill="#151615" points="45.82,56.608 43.817,90.047 58.764,90.047 58.764,56.608 "/>
<polygon fill="#07A007" points="63.387,55.53 83.727,49.366 82.494,100.833 64.311,100.833 "/>
<polygon fill="#2E632E" points="87.425,47.979 85.114,100.833 106.379,97.906 105.146,43.664 "/>
<polygon fill="#7C997C" points="110.231,43.664 111.31,75.87 119.631,75.87 121.634,40.274 "/>
<polygon fill="#459B45" points="124.716,63.234 136.581,63.234 151.066,70.323 149.525,78.336 124.716,75.87 "/>
<polygon fill="#038703" points="125.949,39.504 124.716,60.152 136.89,60.152 139.817,45.359 162.007,40.274 152.145,27.176 "/>
<polygon fill="#6FE26F" points="43.046,18.855 41.043,50.29 59.534,50.29 68.318,47.517 "/>
<polygon fill="#36D836" points="66.469,27.176 63.387,34.573 74.327,46.746 102.989,38.271 98.52,22.708 "/>
<polygon fill="#04B704" points="100.677,21.937 106.379,37.963 123.021,34.727 141.821,25.789 137.198,12.229 "/>
<polygon fill="#4B594B" points="110.231,80.955 109.461,98.676 130.418,97.443 132.113,82.034 "/>
</svg>
