# 3ds Max Wavefront OBJ Exporter v0.97b - (c)2007 guruware
# File Created: 05.07.2016 12:12:02

mtllib jifangchuanglian01.mtl

#
# object jifangchuanglian01
#

v  185.2710 -104.5978 -0.0000
v  185.2710 104.5978 0.0000
v  -185.2710 104.5978 0.0000
v  -185.2710 -104.5978 -0.0000
# 4 vertices

vn 0.0000 -0.0000 1.0000
# 1 vertex normals

vt 0.0010 0.9990 0.0000
vt 0.0010 0.0010 0.0000
vt 0.5342 0.0010 0.0000
vt 0.5342 0.9990 0.0000
# 4 texture coords

g jifangchuanglian01
usemtl jiaoshichuanglian
s 1
f 1/1/1 2/2/1 3/3/1 4/4/1 
# 1 polygons

