# 3ds Max Wavefront OBJ Exporter v0.97b - (c)2007 guruware
# File Created: 04.07.2016 16:54:46

mtllib jiaoshibanpai.mtl

#
# object jiaoshibanpai
#

v  -23.5336 -12.3432 -0.0000
v  -23.5336 12.3432 0.0000
v  -23.1646 14.1883 0.0000
v  -22.0908 15.2621 0.0000
v  -20.2457 15.6311 0.0000
v  23.5336 12.3432 0.0000
v  20.2457 15.6311 0.0000
v  22.0908 15.2621 0.0000
v  23.1646 14.1883 0.0000
v  23.5336 -12.3432 -0.0000
v  23.1646 -14.1883 -0.0000
v  22.0908 -15.2621 -0.0000
v  20.2457 -15.6311 -0.0000
v  -23.1646 -14.1883 -0.0000
v  -22.0908 -15.2621 -0.0000
v  -20.2457 -15.6311 -0.0000
v  -20.2457 -15.6311 3.1610
v  20.2457 -15.6311 3.1610
v  22.0908 -15.2621 3.1610
v  23.1646 -14.1883 3.1610
v  23.5336 -12.3432 3.1610
v  20.2457 15.6311 3.1610
v  23.5336 12.3432 3.1610
v  23.1646 14.1883 3.1610
v  22.0908 15.2621 3.1610
v  -20.2457 15.6311 3.1610
v  -22.0908 15.2621 3.1610
v  -23.1646 14.1883 3.1610
v  -23.5336 12.3432 3.1610
v  -22.0908 -15.2621 3.1610
v  -23.1646 -14.1883 3.1610
v  -23.5336 -12.3432 3.1610
v  -20.2629 -15.8050 0.1739
v  20.2629 -15.8050 0.1739
v  20.2629 -15.8050 2.9871
v  -20.2629 -15.8050 2.9871
v  23.7075 -12.3604 0.1739
v  23.7075 12.3604 0.1739
v  23.7075 12.3604 2.9871
v  23.7075 -12.3604 2.9871
v  20.2629 15.8050 0.1739
v  -20.2629 15.8050 0.1739
v  -20.2629 15.8050 2.9871
v  20.2629 15.8050 2.9871
v  -23.7075 12.3604 0.1739
v  -23.7075 -12.3604 0.1739
v  -23.7075 -12.3604 2.9871
v  -23.7075 12.3604 2.9871
v  22.1766 -15.4223 2.9871
v  22.1766 -15.4223 0.1739
v  -22.1766 -15.4223 0.1739
v  -22.1766 -15.4223 2.9871
v  23.3248 14.2741 2.9871
v  23.3248 14.2741 0.1739
v  -22.1766 15.4223 2.9871
v  -22.1766 15.4223 0.1739
v  23.3248 -14.2741 2.9871
v  23.3248 -14.2741 0.1739
v  -23.3248 -14.2741 0.1739
v  -23.3248 -14.2741 2.9871
v  22.1766 15.4223 2.9871
v  22.1766 15.4223 0.1739
v  -23.3248 14.2741 2.9871
v  -23.3248 14.2741 0.1739
# 64 vertices

vn 0.0000 0.0000 -1.0000
vn 0.0000 -0.0000 1.0000
vn 0.0000 -1.0000 -0.0000
vn 1.0000 0.0000 -0.0000
vn 0.0000 1.0000 0.0000
vn -1.0000 0.0000 -0.0000
vn 0.1961 -0.9806 -0.0000
vn -0.1961 -0.9806 -0.0000
vn 0.9806 0.1961 0.0000
vn -0.1961 0.9806 0.0000
vn 0.7071 -0.7071 -0.0000
vn 0.9806 -0.1961 -0.0000
vn -0.7071 -0.7071 -0.0000
vn -0.9806 -0.1961 -0.0000
vn 0.7071 0.7071 0.0000
vn 0.1961 0.9806 0.0000
vn -0.7071 0.7071 0.0000
vn -0.9806 0.1961 0.0000
vn -0.7071 0.0000 -0.7071
vn 0.0000 0.7071 -0.7071
vn 0.7071 0.0000 -0.7071
vn 0.0000 -0.7071 -0.7071
vn 0.0000 -0.7071 0.7071
vn 0.7071 -0.0000 0.7071
vn 0.0000 0.7071 0.7071
vn -0.7071 -0.0000 0.7071
vn -0.6934 -0.1387 -0.7071
vn 0.1387 -0.6934 -0.7071
vn -0.1387 0.6934 -0.7071
vn 0.6934 0.1387 -0.7071
vn -0.1387 -0.6934 0.7071
vn 0.6934 -0.1387 0.7071
vn -0.6934 0.1387 0.7071
vn 0.1387 0.6934 0.7071
vn -0.1387 -0.6934 -0.7071
vn -0.5000 -0.5000 -0.7071
vn 0.6934 -0.1387 -0.7071
vn 0.5000 -0.5000 -0.7071
vn -0.6934 0.1387 -0.7071
vn -0.5000 0.5000 -0.7071
vn 0.1387 0.6934 -0.7071
vn 0.5000 0.5000 -0.7071
vn -0.6934 -0.1387 0.7071
vn -0.5000 -0.5000 0.7071
vn 0.1387 -0.6934 0.7071
vn 0.5000 -0.5000 0.7071
vn -0.1387 0.6934 0.7071
vn -0.5000 0.5000 0.7071
vn 0.6934 0.1387 0.7071
vn 0.5000 0.5000 0.7071
# 50 vertex normals

vt 0.4444 0.0010 0.0000
vt 0.7602 0.0010 0.0000
vt 0.7838 0.0057 0.0000
vt 0.7975 0.0195 0.0000
vt 0.8022 0.0431 0.0000
vt 0.7602 0.6029 0.0000
vt 0.8022 0.5609 0.0000
vt 0.7975 0.5845 0.0000
vt 0.7838 0.5982 0.0000
vt 0.4444 0.6029 0.0000
vt 0.4208 0.5982 0.0000
vt 0.4071 0.5845 0.0000
vt 0.4024 0.5609 0.0000
vt 0.4208 0.0057 0.0000
vt 0.4071 0.0195 0.0000
vt 0.4024 0.0431 0.0000
vt 0.4008 0.0431 0.0000
vt 0.4008 0.5609 0.0000
vt 0.3961 0.5845 0.0000
vt 0.3824 0.5982 0.0000
vt 0.3588 0.6029 0.0000
vt 0.0010 0.5609 0.0000
vt 0.0431 0.6029 0.0000
vt 0.0195 0.5982 0.0000
vt 0.0057 0.5845 0.0000
vt 0.0010 0.0431 0.0000
vt 0.0057 0.0195 0.0000
vt 0.0195 0.0057 0.0000
vt 0.0431 0.0010 0.0000
vt 0.3961 0.0195 0.0000
vt 0.3824 0.0057 0.0000
vt 0.3588 0.0010 0.0000
vt 0.8420 0.0255 0.0000
vt 0.8420 0.5438 0.0000
vt 0.8060 0.5438 0.0000
vt 0.8060 0.0255 0.0000
vt 0.4406 0.6437 0.0000
vt 0.4406 0.9598 0.0000
vt 0.4046 0.9598 0.0000
vt 0.4046 0.6437 0.0000
vt 0.8840 0.0255 0.0000
vt 0.8840 0.5438 0.0000
vt 0.8480 0.5438 0.0000
vt 0.8480 0.0255 0.0000
vt 0.0392 0.6437 0.0000
vt 0.0392 0.9598 0.0000
vt 0.0032 0.9598 0.0000
vt 0.0032 0.6437 0.0000
vt 0.8060 0.5682 0.0000
vt 0.8420 0.5682 0.0000
vt 0.8420 0.0010 0.0000
vt 0.8060 0.0010 0.0000
vt 0.4046 0.9843 0.0000
vt 0.4406 0.9843 0.0000
vt 0.8480 0.5682 0.0000
vt 0.8840 0.5682 0.0000
vt 0.4046 0.6192 0.0000
vt 0.4046 0.6045 0.0000
vt 0.4406 0.6045 0.0000
vt 0.4406 0.6192 0.0000
vt 0.0392 0.9843 0.0000
vt 0.0392 0.9990 0.0000
vt 0.0032 0.9990 0.0000
vt 0.0032 0.9843 0.0000
vt 0.4046 0.9990 0.0000
vt 0.4406 0.9990 0.0000
vt 0.8480 0.0010 0.0000
vt 0.8840 0.0010 0.0000
vt 0.0032 0.6192 0.0000
vt 0.0032 0.6045 0.0000
vt 0.0392 0.6045 0.0000
vt 0.0392 0.6192 0.0000
vt 0.0414 0.9596 0.0000
vt 0.0414 0.6439 0.0000
vt 0.8862 0.5435 0.0000
vt 0.8862 0.0257 0.0000
vt 0.4428 0.9596 0.0000
vt 0.4428 0.6439 0.0000
vt 0.8442 0.5435 0.0000
vt 0.8442 0.0257 0.0000
vt 0.8038 0.0257 0.0000
vt 0.8038 0.5435 0.0000
vt 0.4024 0.6439 0.0000
vt 0.4024 0.9596 0.0000
vt 0.8458 0.0257 0.0000
vt 0.8458 0.5435 0.0000
vt 0.0010 0.6439 0.0000
vt 0.0010 0.9596 0.0000
vt 0.0598 0.6450 0.0000
vt 0.0567 0.6453 0.0000
vt 0.0530 0.6215 0.0000
vt 0.0560 0.6204 0.0000
vt 0.9334 0.0420 0.0000
vt 0.9303 0.0422 0.0000
vt 0.9276 0.0183 0.0000
vt 0.9306 0.0172 0.0000
vt 0.9452 0.0257 0.0000
vt 0.9420 0.0259 0.0000
vt 0.9384 0.0021 0.0000
vt 0.9414 0.0010 0.0000
vt 0.9266 0.5541 0.0000
vt 0.9298 0.5539 0.0000
vt 0.9334 0.5777 0.0000
vt 0.9304 0.5788 0.0000
vt 0.8943 0.5513 0.0000
vt 0.8975 0.5510 0.0000
vt 0.9011 0.5748 0.0000
vt 0.8981 0.5760 0.0000
vt 0.4484 0.9547 0.0000
vt 0.4515 0.9544 0.0000
vt 0.4552 0.9782 0.0000
vt 0.4522 0.9793 0.0000
vt 0.0654 0.9412 0.0000
vt 0.0685 0.9410 0.0000
vt 0.0712 0.9649 0.0000
vt 0.0682 0.9660 0.0000
vt 0.9598 0.5380 0.0000
vt 0.9629 0.5378 0.0000
vt 0.9666 0.5616 0.0000
vt 0.9636 0.5627 0.0000
vt 0.9157 0.5788 0.0000
vt 0.9127 0.5777 0.0000
vt 0.9167 0.5548 0.0000
vt 0.9198 0.5551 0.0000
vt 0.0430 0.6067 0.0000
vt 0.0453 0.6045 0.0000
vt 0.9259 0.2173 0.0000
vt 0.9289 0.2183 0.0000
vt 0.9258 0.2412 0.0000
vt 0.9227 0.2411 0.0000
vt 0.9181 0.0031 0.0000
vt 0.9205 0.0010 0.0000
vt 0.0606 0.9819 0.0000
vt 0.0576 0.9809 0.0000
vt 0.0606 0.9579 0.0000
vt 0.0638 0.9581 0.0000
vt 0.0503 0.9952 0.0000
vt 0.0479 0.9933 0.0000
vt 0.9485 0.5627 0.0000
vt 0.9455 0.5617 0.0000
vt 0.9485 0.5387 0.0000
vt 0.9517 0.5389 0.0000
vt 0.9382 0.5760 0.0000
vt 0.9358 0.5741 0.0000
vt 0.0778 0.6045 0.0000
vt 0.0808 0.6057 0.0000
vt 0.0768 0.6285 0.0000
vt 0.0737 0.6282 0.0000
vt 0.9111 0.5896 0.0000
vt 0.9088 0.5918 0.0000
vt 0.8910 0.0142 0.0000
vt 0.8940 0.0153 0.0000
vt 0.8910 0.0382 0.0000
vt 0.8878 0.0381 0.0000
vt 0.9013 0.0010 0.0000
vt 0.9037 0.0029 0.0000
vt 0.9565 0.0010 0.0000
vt 0.9595 0.0020 0.0000
vt 0.9564 0.0250 0.0000
vt 0.9533 0.0248 0.0000
vt 0.0807 0.9801 0.0000
vt 0.0783 0.9822 0.0000
vt 0.4476 0.6178 0.0000
vt 0.4506 0.6188 0.0000
vt 0.4476 0.6418 0.0000
vt 0.4444 0.6416 0.0000
vt 0.4579 0.6045 0.0000
vt 0.4603 0.6064 0.0000
# 168 texture coords

g jiaoshibanpai
usemtl jiaoshibanpai
s 2
f 1/1/1 2/2/1 3/3/1 4/4/1 
f 1/1/1 4/4/1 5/5/1 6/6/1 
f 5/5/1 7/7/1 8/8/1 9/9/1 
f 5/5/1 9/9/1 6/6/1 
f 6/6/1 10/10/1 11/11/1 12/12/1 
f 6/6/1 12/12/1 13/13/1 1/1/1 
f 14/14/1 1/1/1 13/13/1 15/15/1 
f 16/16/1 15/15/1 13/13/1 
s 4
f 17/17/2 18/18/2 19/19/2 20/20/2 
f 17/17/2 20/20/2 21/21/2 22/22/2 
f 21/21/2 23/23/2 24/24/2 25/25/2 
f 21/21/2 25/25/2 22/22/2 
f 22/22/2 26/26/2 27/27/2 28/28/2 
f 22/22/2 28/28/2 29/29/2 17/17/2 
f 30/30/2 17/17/2 29/29/2 31/31/2 
f 32/32/2 31/31/2 29/29/2 
s 8
f 33/33/3 34/34/3 35/35/3 36/36/3 
s 16
f 37/37/4 38/38/4 39/39/4 40/40/4 
s 32
f 41/41/5 42/42/5 43/43/5 44/44/5 
s 64
f 45/45/6 46/46/6 47/47/6 48/48/6 
s off
f 49/49/7 35/35/7 34/34/7 50/50/7 
f 51/51/8 33/33/8 36/36/8 52/52/8 
f 53/53/9 39/39/9 38/38/9 54/54/9 
f 55/55/10 43/43/10 42/42/10 56/56/10 
f 57/57/11 49/58/11 50/59/11 58/60/11 
f 40/40/12 57/57/12 58/60/12 37/37/12 
f 59/61/13 51/62/13 52/63/13 60/64/13 
f 46/46/14 59/61/14 60/64/14 47/47/14 
f 61/65/15 53/53/15 54/54/15 62/66/15 
f 44/44/16 61/67/16 62/68/16 41/41/16 
f 63/69/17 55/70/17 56/71/17 64/72/17 
f 48/48/18 63/69/18 64/72/18 45/45/18 
f 1/73/19 46/46/19 45/45/19 2/74/19 
f 5/75/20 42/42/20 41/41/20 7/76/20 
f 6/77/21 38/38/21 37/37/21 10/78/21 
f 13/79/22 34/34/22 33/33/22 16/80/22 
f 17/81/23 36/36/23 35/35/23 18/82/23 
f 21/83/24 40/40/24 39/39/24 23/84/24 
f 22/85/25 44/44/25 43/43/25 26/86/25 
f 29/87/26 48/48/26 47/47/26 32/88/26 
f 46/89/27 1/90/27 14/91/27 59/92/27 
f 34/93/28 13/94/28 12/95/28 50/96/28 
f 42/97/29 5/98/29 4/99/29 56/100/29 
f 38/101/30 6/102/30 9/103/30 54/104/30 
f 36/105/31 17/106/31 30/107/31 52/108/31 
f 40/109/32 21/110/32 20/111/32 57/112/32 
f 48/113/33 29/114/33 28/115/33 63/116/33 
f 44/117/34 22/118/34 25/119/34 61/120/34 
f 51/121/35 15/122/35 16/123/35 33/124/35 
f 59/92/36 14/91/36 15/125/36 51/126/36 
f 58/127/37 11/128/37 10/129/37 37/130/37 
f 50/96/38 12/95/38 11/131/38 58/132/38 
f 64/133/39 3/134/39 2/135/39 45/136/39 
f 56/137/40 4/138/40 3/134/40 64/133/40 
f 62/139/41 8/140/41 7/141/41 41/142/41 
f 54/143/42 9/144/42 8/140/42 62/139/42 
f 60/145/43 31/146/43 32/147/43 47/148/43 
f 52/108/44 30/107/44 31/149/44 60/150/44 
f 49/151/45 19/152/45 18/153/45 35/154/45 
f 57/155/46 20/156/46 19/152/46 49/151/46 
f 55/157/47 27/158/47 26/159/47 43/160/47 
f 63/116/48 28/115/48 27/161/48 55/162/48 
f 53/163/49 24/164/49 23/165/49 39/166/49 
f 61/167/50 25/168/50 24/164/50 53/163/50 
# 60 polygons - 4 triangles

