# 3ds Max Wavefront OBJ Exporter v0.97b - (c)2007 guruware
# File Created: 04.07.2016 16:47:43

mtllib jiaoshiyankong.mtl

#
# object jiaoshiyankong
#

v  12.2785 0.0000 -0.0000
v  9.9335 0.0000 -7.2171
v  9.9335 -6.2109 -7.2171
v  12.2785 -6.2109 -0.0000
v  3.7943 0.0000 -11.6775
v  3.7943 -6.2109 -11.6775
v  -3.7943 0.0000 -11.6775
v  -3.7943 -6.2109 -11.6775
v  -9.9335 0.0000 -7.2171
v  -9.9335 -6.2109 -7.2171
v  -12.2785 0.0000 0.0000
v  -12.2785 -6.2109 0.0000
v  -9.9335 0.0000 7.2171
v  -9.9335 -6.2109 7.2171
v  -3.7943 0.0000 11.6775
v  -3.7943 -6.2109 11.6775
v  3.7943 0.0000 11.6775
v  3.7943 -6.2109 11.6775
v  9.9335 0.0000 7.2171
v  9.9335 -6.2109 7.2171
v  9.6533 -6.3973 -7.0136
v  11.9322 -6.3973 -0.0000
v  3.6872 -6.3973 -11.3482
v  -3.6872 -6.3973 -11.3482
v  -9.6533 -6.3973 -7.0136
v  -11.9322 -6.3973 0.0000
v  -9.6533 -6.3973 7.0136
v  -3.6872 -6.3973 11.3482
v  3.6872 -6.3973 11.3482
v  9.6533 -6.3973 7.0135
v  4.7431 -7.2553 -3.4461
v  5.8628 -7.2553 -0.0000
v  1.8117 -7.2553 -5.5759
v  -1.8117 -7.2553 -5.5759
v  -4.7431 -7.2553 -3.4461
v  -5.8628 -7.2553 0.0000
v  -4.7431 -7.2553 3.4461
v  -1.8117 -7.2553 5.5759
v  1.8117 -7.2553 5.5759
v  4.7431 -7.2553 3.4461
# 40 vertices

vn 1.0000 0.0000 -0.0000
vn 0.8090 0.0000 -0.5878
vn 1.0000 -0.0000 -0.0000
vn 0.3090 0.0000 -0.9511
vn -0.3090 0.0000 -0.9511
vn -0.8090 0.0000 -0.5878
vn -1.0000 -0.0000 0.0000
vn -1.0000 0.0000 0.0000
vn -0.8090 -0.0000 0.5878
vn -0.3090 0.0000 0.9511
vn -0.3090 -0.0000 0.9511
vn 0.3090 -0.0000 0.9511
vn 0.3090 0.0000 0.9511
vn 0.8090 -0.0000 0.5878
vn 0.0000 1.0000 -0.0000
vn 0.4684 -0.8703 -0.1522
vn 0.2895 -0.8703 -0.3985
vn 0.0000 -0.8703 -0.4926
vn -0.2895 -0.8703 -0.3985
vn -0.4684 -0.8703 -0.1522
vn -0.4684 -0.8703 0.1522
vn -0.2895 -0.8703 0.3985
vn 0.0000 -0.8703 0.4926
vn 0.2895 -0.8703 0.3985
vn 0.4684 -0.8703 0.1522
vn 0.1400 -0.9902 0.0000
vn 0.1132 -0.9902 -0.0823
vn 0.0680 -0.9965 -0.0494
vn 0.0841 -0.9965 0.0000
vn 0.0433 -0.9902 -0.1331
vn 0.0260 -0.9965 -0.0800
vn -0.0433 -0.9902 -0.1331
vn -0.0260 -0.9965 -0.0800
vn -0.1132 -0.9902 -0.0823
vn -0.0680 -0.9965 -0.0494
vn -0.1400 -0.9902 0.0000
vn -0.0841 -0.9965 0.0000
vn -0.1132 -0.9902 0.0823
vn -0.0680 -0.9965 0.0494
vn -0.0433 -0.9902 0.1331
vn -0.0260 -0.9965 0.0800
vn 0.0433 -0.9902 0.1331
vn 0.0260 -0.9965 0.0800
vn 0.1132 -0.9902 0.0823
vn 0.0680 -0.9965 0.0494
# 45 vertex normals

vt 0.7675 0.6804 0.0000
vt 0.7675 0.8344 0.0000
vt 0.6350 0.8344 0.0000
vt 0.6350 0.6804 0.0000
vt 0.6333 0.5265 0.0000
vt 0.6333 0.6574 0.0000
vt 0.5008 0.6574 0.0000
vt 0.5008 0.5265 0.0000
vt 0.6333 0.8193 0.0000
vt 0.5008 0.8193 0.0000
vt 0.6333 0.9502 0.0000
vt 0.5008 0.9502 0.0000
vt 0.2676 0.5265 0.0000
vt 0.2676 0.6804 0.0000
vt 0.1352 0.6804 0.0000
vt 0.1352 0.5265 0.0000
vt 0.2676 0.8344 0.0000
vt 0.1352 0.8344 0.0000
vt 0.1335 0.5265 0.0000
vt 0.1335 0.6574 0.0000
vt 0.0010 0.6574 0.0000
vt 0.0010 0.5265 0.0000
vt 0.1335 0.8193 0.0000
vt 0.0010 0.8193 0.0000
vt 0.1335 0.9502 0.0000
vt 0.0010 0.9502 0.0000
vt 0.7675 0.5265 0.0000
vt 0.6350 0.5265 0.0000
vt 0.5008 0.3438 0.0000
vt 0.5008 0.1820 0.0000
vt 0.5960 0.0510 0.0000
vt 0.7499 0.5248 0.0000
vt 0.7499 0.0010 0.0000
vt 0.9039 0.0510 0.0000
vt 0.9990 0.1820 0.0000
vt 0.9990 0.3438 0.0000
vt 0.9039 0.4748 0.0000
vt 0.5960 0.4748 0.0000
vt 0.2501 0.5248 0.0000
vt 0.0961 0.4748 0.0000
vt 0.1005 0.4688 0.0000
vt 0.2501 0.5174 0.0000
vt 0.0010 0.3438 0.0000
vt 0.0080 0.3415 0.0000
vt 0.0010 0.1820 0.0000
vt 0.0080 0.1842 0.0000
vt 0.0961 0.0510 0.0000
vt 0.1005 0.0570 0.0000
vt 0.2501 0.0010 0.0000
vt 0.2501 0.0084 0.0000
vt 0.4040 0.0510 0.0000
vt 0.3997 0.0570 0.0000
vt 0.4992 0.1820 0.0000
vt 0.4921 0.1842 0.0000
vt 0.4992 0.3438 0.0000
vt 0.4921 0.3415 0.0000
vt 0.4040 0.4748 0.0000
vt 0.3997 0.4688 0.0000
vt 0.1766 0.3641 0.0000
vt 0.2501 0.3879 0.0000
vt 0.1311 0.3015 0.0000
vt 0.1311 0.2243 0.0000
vt 0.1766 0.1617 0.0000
vt 0.2501 0.1378 0.0000
vt 0.3236 0.1617 0.0000
vt 0.3690 0.2243 0.0000
vt 0.3690 0.3015 0.0000
vt 0.3236 0.3641 0.0000
# 68 texture coords

g jiaoshiyankong
usemtl jiaoshiyankong
s 8
f 4/4/3 3/3/2 2/2/2 1/1/1 
f 3/8/2 6/7/4 5/6/4 2/5/2 
f 6/7/4 8/10/5 7/9/5 5/6/4 
f 8/10/5 10/12/6 9/11/6 7/9/5 
f 10/16/6 12/15/8 11/14/7 9/13/6 
f 12/15/8 14/18/9 13/17/9 11/14/7 
f 14/22/9 16/21/11 15/20/10 13/19/9 
f 16/21/11 18/24/13 17/23/12 15/20/10 
f 18/24/13 20/26/14 19/25/14 17/23/12 
f 20/28/14 4/4/3 1/1/1 19/27/14 
s 1
f 1/32/15 13/31/15 15/30/15 17/29/15 
f 1/32/15 9/34/15 11/33/15 13/31/15 
f 1/32/15 5/36/15 7/35/15 9/34/15 
f 1/32/15 2/37/15 5/36/15 
f 1/32/15 17/29/15 19/38/15 
s off
f 22/42/16 21/41/16 3/40/16 4/39/16 
f 21/41/17 23/44/17 6/43/17 3/40/17 
f 23/44/18 24/46/18 8/45/18 6/43/18 
f 24/46/19 25/48/19 10/47/19 8/45/19 
f 25/48/20 26/50/20 12/49/20 10/47/20 
f 26/50/21 27/52/21 14/51/21 12/49/21 
f 27/52/22 28/54/22 16/53/22 14/51/22 
f 28/54/23 29/56/23 18/55/23 16/53/23 
f 29/56/24 30/58/24 20/57/24 18/55/24 
f 30/58/25 22/42/25 4/39/25 20/57/25 
s 1
f 32/60/29 31/59/28 21/41/27 22/42/26 
f 31/59/28 33/61/31 23/44/30 21/41/27 
f 33/61/31 34/62/33 24/46/32 23/44/30 
f 34/62/33 35/63/35 25/48/34 24/46/32 
f 35/63/35 36/64/37 26/50/36 25/48/34 
f 36/64/37 37/65/39 27/52/38 26/50/36 
f 37/65/39 38/66/41 28/54/40 27/52/38 
f 38/66/41 39/67/43 29/56/42 28/54/40 
f 39/67/43 40/68/45 30/58/44 29/56/42 
f 40/68/45 32/60/29 22/42/26 30/58/44 
f 32/60/29 35/63/35 34/62/33 33/61/31 
f 32/60/29 37/65/39 36/64/37 35/63/35 
f 32/60/29 39/67/43 38/66/41 37/65/39 
f 32/60/29 40/68/45 39/67/43 
f 32/60/29 33/61/31 31/59/28 
# 36 polygons - 4 triangles

