# 3ds Max Wavefront OBJ Exporter v0.97b - (c)2007 guruware
# File Created: 04.07.2016 16:52:22

mtllib jiaoshishexiangtou.mtl

#
# object jiaoshishexiangtou
#

v  3.2044 -3.4685 -7.7362
v  3.4685 -0.0000 -8.3736
v  6.4089 -0.0000 -6.4089
v  5.9210 -3.4685 -5.9210
v  -0.0000 -3.4685 -8.3736
v  -0.0000 -0.0000 -9.0635
v  -3.2044 -3.4685 -7.7362
v  -3.4685 -0.0000 -8.3736
v  -5.9210 -3.4685 -5.9210
v  -6.4089 -0.0000 -6.4089
v  -7.7362 -3.4685 -3.2044
v  -8.3736 -0.0000 -3.4685
v  -8.3736 -3.4685 -0.0000
v  -9.0635 -0.0000 -0.0000
v  -7.7362 -3.4685 3.2044
v  -8.3736 -0.0000 3.4685
v  -5.9210 -3.4685 5.9210
v  -6.4089 -0.0000 6.4089
v  -3.2044 -3.4685 7.7362
v  -3.4684 -0.0000 8.3736
v  0.0000 -3.4685 8.3736
v  0.0000 -0.0000 9.0635
v  3.2044 -3.4685 7.7362
v  3.4685 -0.0000 8.3736
v  5.9210 -3.4685 5.9210
v  6.4089 -0.0000 6.4089
v  7.7362 -3.4685 3.2044
v  8.3736 -0.0000 3.4684
v  8.3736 -3.4685 -0.0000
v  9.0635 -0.0000 -0.0000
v  7.7362 -3.4685 -3.2044
v  8.3736 -0.0000 -3.4685
v  2.4526 -6.4089 -5.9210
v  4.5318 -6.4089 -4.5318
v  -0.0000 -6.4089 -6.4089
v  -2.4526 -6.4089 -5.9210
v  -4.5318 -6.4089 -4.5318
v  -5.9210 -6.4089 -2.4526
v  -6.4089 -6.4089 -0.0000
v  -5.9210 -6.4089 2.4526
v  -4.5318 -6.4089 4.5318
v  -2.4526 -6.4089 5.9210
v  0.0000 -6.4089 6.4089
v  2.4526 -6.4089 5.9210
v  4.5318 -6.4089 4.5317
v  5.9210 -6.4089 2.4526
v  6.4089 -6.4089 -0.0000
v  5.9210 -6.4089 -2.4526
v  1.3273 -8.3736 -3.2044
v  2.4526 -8.3736 -2.4526
v  -0.0000 -8.3736 -3.4685
v  -1.3273 -8.3736 -3.2044
v  -2.4526 -8.3736 -2.4526
v  -3.2044 -8.3736 -1.3273
v  -3.4685 -8.3736 -0.0000
v  -3.2044 -8.3736 1.3273
v  -2.4526 -8.3736 2.4526
v  -1.3273 -8.3736 3.2044
v  0.0000 -8.3736 3.4685
v  1.3273 -8.3736 3.2044
v  2.4526 -8.3736 2.4526
v  3.2044 -8.3736 1.3273
v  3.4685 -8.3736 -0.0000
v  3.2044 -8.3736 -1.3273
v  0.0000 -9.0635 -0.0000
v  4.0216 0.2856 -9.7089
v  7.4309 0.2856 -7.4309
v  -0.0000 0.2856 -10.5088
v  -4.0216 0.2856 -9.7089
v  -7.4309 0.2856 -7.4309
v  -9.7089 0.2856 -4.0216
v  -10.5088 0.2856 -0.0000
v  -9.7089 0.2856 4.0216
v  -7.4309 0.2856 7.4309
v  -4.0216 0.2856 9.7089
v  0.0000 0.2856 10.5088
v  4.0216 0.2856 9.7089
v  7.4309 0.2856 7.4309
v  9.7089 0.2856 4.0216
v  10.5088 0.2856 -0.0000
v  9.7089 0.2856 -4.0216
v  7.9590 1.1946 -7.9590
v  4.3074 1.1946 -10.3989
v  4.3074 8.8092 -10.3989
v  7.9590 8.8092 -7.9590
v  -0.0000 1.1946 -11.2557
v  -0.0000 8.8092 -11.2557
v  -4.3074 1.1946 -10.3989
v  -4.3074 8.8092 -10.3989
v  -7.9590 1.1946 -7.9590
v  -7.9590 8.8092 -7.9590
v  -10.3989 1.1946 -4.3074
v  -10.3989 8.8092 -4.3074
v  -11.2557 1.1946 -0.0000
v  -11.2557 8.8092 -0.0000
v  -10.3989 1.1946 4.3074
v  -10.3989 8.8092 4.3074
v  -7.9590 1.1946 7.9590
v  -7.9590 8.8092 7.9590
v  -4.3074 1.1946 10.3989
v  -4.3074 8.8092 10.3989
v  0.0000 1.1946 11.2557
v  0.0000 8.8092 11.2557
v  4.3074 1.1946 10.3989
v  4.3074 8.8092 10.3989
v  7.9590 1.1946 7.9590
v  7.9590 8.8092 7.9590
v  10.3989 1.1946 4.3074
v  10.3989 8.8092 4.3074
v  11.2557 1.1946 -0.0000
v  11.2557 8.8092 -0.0000
v  10.3989 1.1946 -4.3074
v  10.3989 8.8092 -4.3074
v  4.1859 9.1557 -10.1056
v  7.7345 9.1557 -7.7345
v  -0.0000 9.1557 -10.9382
v  -4.1859 9.1557 -10.1056
v  -7.7345 9.1557 -7.7345
v  -10.1056 9.1557 -4.1859
v  -10.9383 9.1557 -0.0000
v  -10.1056 9.1557 4.1859
v  -7.7345 9.1557 7.7345
v  -4.1859 9.1557 10.1056
v  0.0000 9.1557 10.9383
v  4.1859 9.1557 10.1056
v  7.7345 9.1557 7.7345
v  10.1056 9.1557 4.1859
v  10.9383 9.1557 -0.0000
v  10.1056 9.1557 -4.1859
# 129 vertices

vn 0.3549 -0.3744 -0.8567
vn 0.3753 -0.1951 -0.9061
vn 0.6935 -0.1951 -0.6935
vn 0.6557 -0.3744 -0.6557
vn -0.0000 -0.3744 -0.9273
vn -0.0000 -0.1951 -0.9808
vn -0.3549 -0.3744 -0.8567
vn -0.3753 -0.1951 -0.9061
vn -0.6557 -0.3744 -0.6557
vn -0.6935 -0.1951 -0.6935
vn -0.8567 -0.3744 -0.3549
vn -0.9061 -0.1951 -0.3753
vn -0.9273 -0.3744 -0.0000
vn -0.9808 -0.1951 -0.0000
vn -0.8567 -0.3744 0.3549
vn -0.9061 -0.1951 0.3753
vn -0.6557 -0.3744 0.6557
vn -0.6935 -0.1951 0.6935
vn -0.3549 -0.3744 0.8567
vn -0.3753 -0.1951 0.9061
vn 0.0000 -0.3744 0.9273
vn 0.0000 -0.1951 0.9808
vn 0.3549 -0.3744 0.8567
vn 0.3753 -0.1951 0.9061
vn 0.6557 -0.3744 0.6557
vn 0.6935 -0.1951 0.6935
vn 0.8567 -0.3744 0.3549
vn 0.9061 -0.1951 0.3753
vn 0.9273 -0.3744 -0.0000
vn 0.9808 -0.1951 -0.0000
vn 0.8567 -0.3744 -0.3549
vn 0.9061 -0.1951 -0.3753
vn 0.2751 -0.6952 -0.6641
vn 0.5083 -0.6952 -0.5083
vn -0.0000 -0.6952 -0.7189
vn -0.2751 -0.6952 -0.6641
vn -0.5083 -0.6952 -0.5083
vn -0.6641 -0.6952 -0.2751
vn -0.7189 -0.6952 -0.0000
vn -0.6641 -0.6952 0.2751
vn -0.5083 -0.6952 0.5083
vn -0.2751 -0.6952 0.6641
vn 0.0000 -0.6952 0.7189
vn 0.2751 -0.6952 0.6641
vn 0.5083 -0.6952 0.5083
vn 0.6641 -0.6952 0.2751
vn 0.7189 -0.6952 -0.0000
vn 0.6641 -0.6952 -0.2751
vn 0.1543 -0.9152 -0.3724
vn 0.2850 -0.9152 -0.2850
vn -0.0000 -0.9152 -0.4031
vn -0.1543 -0.9152 -0.3724
vn -0.2850 -0.9152 -0.2850
vn -0.3724 -0.9152 -0.1543
vn -0.4031 -0.9152 -0.0000
vn -0.3724 -0.9152 0.1543
vn -0.2850 -0.9152 0.2850
vn -0.1543 -0.9152 0.3724
vn 0.0000 -0.9152 0.4031
vn 0.1543 -0.9152 0.3724
vn 0.2850 -0.9152 0.2850
vn 0.3724 -0.9152 0.1543
vn 0.4031 -0.9152 -0.0000
vn 0.3724 -0.9152 -0.1543
vn 0.0000 -1.0000 -0.0000
vn 0.1097 -0.9803 -0.1642
vn 0.0385 -0.9803 -0.1937
vn -0.0385 -0.9803 -0.1937
vn -0.1097 -0.9803 -0.1642
vn -0.1642 -0.9803 -0.1097
vn -0.1937 -0.9803 -0.0385
vn -0.1937 -0.9803 0.0385
vn -0.1642 -0.9803 0.1097
vn -0.1097 -0.9803 0.1642
vn -0.0385 -0.9803 0.1937
vn 0.0385 -0.9803 0.1937
vn 0.1097 -0.9803 0.1642
vn 0.1642 -0.9803 0.1097
vn 0.1937 -0.9803 0.0385
vn 0.1937 -0.9803 -0.0385
vn 0.1642 -0.9803 -0.1097
vn 0.6688 -0.3246 -0.6688
vn 0.3620 -0.3246 -0.8739
vn 0.3827 0.0000 -0.9239
vn 0.7071 0.0000 -0.7071
vn -0.0000 -0.3246 -0.9459
vn 0.0000 0.0000 -1.0000
vn -0.3620 -0.3246 -0.8739
vn -0.3827 0.0000 -0.9239
vn -0.6688 -0.3246 -0.6688
vn -0.7071 0.0000 -0.7071
vn -0.8739 -0.3246 -0.3620
vn -0.9239 -0.0000 -0.3827
vn -0.9459 -0.3246 -0.0000
vn -1.0000 -0.0000 -0.0000
vn -0.8739 -0.3246 0.3620
vn -0.9239 0.0000 0.3827
vn -0.6688 -0.3246 0.6688
vn -0.7071 0.0000 0.7071
vn -0.3620 -0.3246 0.8739
vn -0.3827 0.0000 0.9239
vn 0.0000 -0.3246 0.9459
vn 0.0000 0.0000 1.0000
vn 0.3620 -0.3246 0.8739
vn 0.3827 -0.0000 0.9239
vn 0.6688 -0.3246 0.6688
vn 0.7071 -0.0000 0.7071
vn 0.8739 -0.3246 0.3620
vn 0.9239 0.0000 0.3827
vn 0.9459 -0.3246 -0.0000
vn 1.0000 0.0000 -0.0000
vn 0.8739 -0.3246 -0.3620
vn 0.9239 0.0000 -0.3827
vn 0.2957 -0.6349 -0.7138
vn 0.5463 -0.6349 -0.5463
vn 0.0000 -0.6349 -0.7726
vn -0.2957 -0.6349 -0.7138
vn -0.5463 -0.6349 -0.5463
vn -0.7138 -0.6349 -0.2957
vn -0.7726 -0.6349 -0.0000
vn -0.7138 -0.6349 0.2957
vn -0.5463 -0.6349 0.5463
vn -0.2957 -0.6349 0.7138
vn 0.0000 -0.6349 0.7726
vn 0.2957 -0.6349 0.7138
vn 0.5463 -0.6349 0.5463
vn 0.7138 -0.6349 0.2957
vn 0.7726 -0.6349 -0.0000
vn 0.7138 -0.6349 -0.2957
vn 0.4132 0.6684 -0.6185
vn 0.1451 0.6684 -0.7295
vn -0.1451 0.6684 -0.7295
vn -0.4132 0.6684 -0.6185
vn -0.6185 0.6684 -0.4132
vn -0.7295 0.6684 -0.1451
vn -0.7295 0.6684 0.1451
vn -0.6185 0.6684 0.4132
vn -0.4132 0.6684 0.6185
vn -0.1451 0.6684 0.7295
vn 0.1451 0.6684 0.7295
vn 0.4132 0.6684 0.6185
vn 0.6185 0.6684 0.4132
vn 0.7295 0.6684 0.1451
vn 0.7295 0.6684 -0.1451
vn 0.6185 0.6684 -0.4132
vn -0.0000 1.0000 -0.0000
vn 0.0000 1.0000 0.0000
vn -0.0000 1.0000 0.0000
vn 0.0000 1.0000 -0.0000
# 149 vertex normals

vt 0.7935 0.6774 0.0000
vt 0.7882 0.6086 0.0000
vt 0.8570 0.6086 0.0000
vt 0.8570 0.6774 0.0000
vt 0.7396 0.6774 0.0000
vt 0.7299 0.6086 0.0000
vt 0.6020 0.8562 0.0000
vt 0.6073 0.7873 0.0000
vt 0.6656 0.7873 0.0000
vt 0.6559 0.8562 0.0000
vt 0.5384 0.8562 0.0000
vt 0.5384 0.7873 0.0000
vt 0.4749 0.8562 0.0000
vt 0.4696 0.7873 0.0000
vt 0.4210 0.8562 0.0000
vt 0.4113 0.7873 0.0000
vt 0.1918 0.9089 0.0000
vt 0.1970 0.8401 0.0000
vt 0.2553 0.8401 0.0000
vt 0.2457 0.9089 0.0000
vt 0.1282 0.9089 0.0000
vt 0.1282 0.8401 0.0000
vt 0.0646 0.9089 0.0000
vt 0.0593 0.8401 0.0000
vt 0.0107 0.9089 0.0000
vt 0.0010 0.8401 0.0000
vt 0.9206 0.4987 0.0000
vt 0.9259 0.4298 0.0000
vt 0.9842 0.4298 0.0000
vt 0.9745 0.4987 0.0000
vt 0.8570 0.4987 0.0000
vt 0.8570 0.4298 0.0000
vt 0.7935 0.4987 0.0000
vt 0.7882 0.4298 0.0000
vt 0.7396 0.4987 0.0000
vt 0.7299 0.4298 0.0000
vt 0.9206 0.6774 0.0000
vt 0.9259 0.6086 0.0000
vt 0.9842 0.6086 0.0000
vt 0.9745 0.6774 0.0000
vt 0.8084 0.7358 0.0000
vt 0.8570 0.7358 0.0000
vt 0.3230 0.8458 0.0000
vt 0.3225 0.9160 0.0000
vt 0.2581 0.9085 0.0000
vt 0.2737 0.8401 0.0000
vt 0.3697 0.8408 0.0000
vt 0.3835 0.9094 0.0000
vt 0.5384 0.9145 0.0000
vt 0.5871 0.9145 0.0000
vt 0.4898 0.9145 0.0000
vt 0.4947 0.2600 0.0000
vt 0.4942 0.3302 0.0000
vt 0.4298 0.3227 0.0000
vt 0.4454 0.2543 0.0000
vt 0.5415 0.2550 0.0000
vt 0.5553 0.3236 0.0000
vt 0.1282 0.9673 0.0000
vt 0.1768 0.9673 0.0000
vt 0.0795 0.9673 0.0000
vt 0.1943 0.6012 0.0000
vt 0.2645 0.6017 0.0000
vt 0.2570 0.6661 0.0000
vt 0.1886 0.6505 0.0000
vt 0.1893 0.5544 0.0000
vt 0.2579 0.5406 0.0000
vt 0.8570 0.5570 0.0000
vt 0.9057 0.5570 0.0000
vt 0.8084 0.5570 0.0000
vt 0.1175 0.6012 0.0000
vt 0.1877 0.6017 0.0000
vt 0.1802 0.6661 0.0000
vt 0.1118 0.6505 0.0000
vt 0.1125 0.5544 0.0000
vt 0.1811 0.5406 0.0000
vt 0.9057 0.7358 0.0000
vt 0.5410 0.0584 0.0000
vt 0.5293 0.0012 0.0000
vt 0.5790 0.0010 0.0000
vt 0.5678 0.0583 0.0000
vt 0.5162 0.0688 0.0000
vt 0.4836 0.0204 0.0000
vt 0.4973 0.0878 0.0000
vt 0.4486 0.0556 0.0000
vt 0.4871 0.1127 0.0000
vt 0.4298 0.1015 0.0000
vt 0.4872 0.1395 0.0000
vt 0.4300 0.1511 0.0000
vt 0.4976 0.1643 0.0000
vt 0.4492 0.1969 0.0000
vt 0.5166 0.1832 0.0000
vt 0.4844 0.2318 0.0000
vt 0.5415 0.1934 0.0000
vt 0.5303 0.2506 0.0000
vt 0.5683 0.1933 0.0000
vt 0.5800 0.2505 0.0000
vt 0.5931 0.1829 0.0000
vt 0.6257 0.2313 0.0000
vt 0.6120 0.1638 0.0000
vt 0.6607 0.1961 0.0000
vt 0.6222 0.1390 0.0000
vt 0.6795 0.1501 0.0000
vt 0.6221 0.1121 0.0000
vt 0.6793 0.1005 0.0000
vt 0.6117 0.0874 0.0000
vt 0.6601 0.0548 0.0000
vt 0.5927 0.0684 0.0000
vt 0.6249 0.0198 0.0000
vt 0.5547 0.1258 0.0000
vt 0.3822 0.6689 0.0000
vt 0.3819 0.5987 0.0000
vt 0.4100 0.5930 0.0000
vt 0.4104 0.6744 0.0000
vt 0.3548 0.5340 0.0000
vt 0.3786 0.5180 0.0000
vt 0.3050 0.4846 0.0000
vt 0.3208 0.4607 0.0000
vt 0.2401 0.4580 0.0000
vt 0.2455 0.4298 0.0000
vt 0.1699 0.4583 0.0000
vt 0.1642 0.4302 0.0000
vt 0.1052 0.4854 0.0000
vt 0.0891 0.4616 0.0000
vt 0.0557 0.5352 0.0000
vt 0.0318 0.5193 0.0000
vt 0.0292 0.6001 0.0000
vt 0.0010 0.5946 0.0000
vt 0.0294 0.6703 0.0000
vt 0.0013 0.6760 0.0000
vt 0.0565 0.7350 0.0000
vt 0.0328 0.7510 0.0000
vt 0.1064 0.7844 0.0000
vt 0.0905 0.8084 0.0000
vt 0.1713 0.8110 0.0000
vt 0.1658 0.8392 0.0000
vt 0.2415 0.8108 0.0000
vt 0.2472 0.8389 0.0000
vt 0.3062 0.7836 0.0000
vt 0.3222 0.8074 0.0000
vt 0.3556 0.7338 0.0000
vt 0.3795 0.7497 0.0000
vt 0.8411 0.3377 0.0000
vt 0.7556 0.3377 0.0000
vt 0.7556 0.1866 0.0000
vt 0.8411 0.1866 0.0000
vt 0.6831 0.3377 0.0000
vt 0.6831 0.1866 0.0000
vt 0.7271 0.7666 0.0000
vt 0.6547 0.7666 0.0000
vt 0.6547 0.6155 0.0000
vt 0.7271 0.6155 0.0000
vt 0.5692 0.7666 0.0000
vt 0.5692 0.6155 0.0000
vt 0.4837 0.7666 0.0000
vt 0.4837 0.6155 0.0000
vt 0.4113 0.7666 0.0000
vt 0.4113 0.6155 0.0000
vt 0.7271 0.5878 0.0000
vt 0.6547 0.5878 0.0000
vt 0.6547 0.4367 0.0000
vt 0.7271 0.4367 0.0000
vt 0.5692 0.5878 0.0000
vt 0.5692 0.4367 0.0000
vt 0.4837 0.5878 0.0000
vt 0.4837 0.4367 0.0000
vt 0.4113 0.5878 0.0000
vt 0.4113 0.4367 0.0000
vt 0.9990 0.1590 0.0000
vt 0.9265 0.1590 0.0000
vt 0.9265 0.0079 0.0000
vt 0.9990 0.0079 0.0000
vt 0.8411 0.1590 0.0000
vt 0.8411 0.0079 0.0000
vt 0.7556 0.1590 0.0000
vt 0.7556 0.0079 0.0000
vt 0.6831 0.1590 0.0000
vt 0.6831 0.0079 0.0000
vt 0.9990 0.3377 0.0000
vt 0.9265 0.3377 0.0000
vt 0.9265 0.1866 0.0000
vt 0.9990 0.1866 0.0000
vt 0.7613 0.3558 0.0000
vt 0.8411 0.3558 0.0000
vt 0.7695 0.3692 0.0000
vt 0.7697 0.3926 0.0000
vt 0.6831 0.3825 0.0000
vt 0.6887 0.3598 0.0000
vt 0.8464 0.3585 0.0000
vt 0.8521 0.3811 0.0000
vt 0.5692 0.7846 0.0000
vt 0.6490 0.7846 0.0000
vt 0.4894 0.7846 0.0000
vt 0.1903 0.7568 0.0000
vt 0.1901 0.7334 0.0000
vt 0.2766 0.7435 0.0000
vt 0.2711 0.7662 0.0000
vt 0.1133 0.7675 0.0000
vt 0.1077 0.7449 0.0000
vt 0.5692 0.6058 0.0000
vt 0.6490 0.6058 0.0000
vt 0.4894 0.6058 0.0000
vt 0.0692 0.6191 0.0000
vt 0.0925 0.6189 0.0000
vt 0.0824 0.7055 0.0000
vt 0.0598 0.6999 0.0000
vt 0.0584 0.5422 0.0000
vt 0.0810 0.5365 0.0000
vt 0.8411 0.1770 0.0000
vt 0.9209 0.1770 0.0000
vt 0.7613 0.1770 0.0000
vt 0.3153 0.6191 0.0000
vt 0.3387 0.6189 0.0000
vt 0.3286 0.7055 0.0000
vt 0.3059 0.6999 0.0000
vt 0.3046 0.5422 0.0000
vt 0.3272 0.5365 0.0000
vt 0.9209 0.3558 0.0000
vt 0.7580 0.1798 0.0000
vt 0.8411 0.1798 0.0000
vt 0.6684 0.7973 0.0000
vt 0.7549 0.7873 0.0000
vt 0.7548 0.7967 0.0000
vt 0.6706 0.8063 0.0000
vt 0.8375 0.8003 0.0000
vt 0.8350 0.8093 0.0000
vt 0.5692 0.6086 0.0000
vt 0.6523 0.6086 0.0000
vt 0.4861 0.6086 0.0000
vt 0.4113 0.9272 0.0000
vt 0.4979 0.9173 0.0000
vt 0.4977 0.9266 0.0000
vt 0.4135 0.9362 0.0000
vt 0.5804 0.9303 0.0000
vt 0.5779 0.9392 0.0000
vt 0.5692 0.4298 0.0000
vt 0.6523 0.4298 0.0000
vt 0.4861 0.4298 0.0000
vt 0.0010 0.9799 0.0000
vt 0.0876 0.9700 0.0000
vt 0.0874 0.9793 0.0000
vt 0.0033 0.9890 0.0000
vt 0.1701 0.9830 0.0000
vt 0.1676 0.9920 0.0000
vt 0.8411 0.0010 0.0000
vt 0.9241 0.0010 0.0000
vt 0.7580 0.0010 0.0000
vt 0.7299 0.5697 0.0000
vt 0.8165 0.5597 0.0000
vt 0.8163 0.5691 0.0000
vt 0.7321 0.5787 0.0000
vt 0.8990 0.5727 0.0000
vt 0.8965 0.5817 0.0000
vt 0.9241 0.1798 0.0000
vt 0.3353 0.3940 0.0000
vt 0.2572 0.4267 0.0000
vt 0.1725 0.4271 0.0000
vt 0.4271 0.2555 0.0000
vt 0.0942 0.3950 0.0000
vt 0.0341 0.3353 0.0000
vt 0.0010 0.1725 0.0000
vt 0.0013 0.2572 0.0000
vt 0.0331 0.0942 0.0000
vt 0.0927 0.0341 0.0000
vt 0.2555 0.0010 0.0000
vt 0.1709 0.0013 0.0000
vt 0.3339 0.0331 0.0000
vt 0.3940 0.0927 0.0000
vt 0.4267 0.1709 0.0000
vt 0.3950 0.3339 0.0000
# 269 texture coords

g jiaoshishexiangtou
usemtl jiaoshishexiangtou
s 1
f 1/1/1 2/2/2 3/3/3 4/4/4 
f 5/5/5 6/6/6 2/2/2 1/1/1 
f 7/7/7 8/8/8 6/9/6 5/10/5 
f 9/11/9 10/12/10 8/8/8 7/7/7 
f 11/13/11 12/14/12 10/12/10 9/11/9 
f 13/15/13 14/16/14 12/14/12 11/13/11 
f 15/17/15 16/18/16 14/19/14 13/20/13 
f 17/21/17 18/22/18 16/18/16 15/17/15 
f 19/23/19 20/24/20 18/22/18 17/21/17 
f 21/25/21 22/26/22 20/24/20 19/23/19 
f 23/27/23 24/28/24 22/29/22 21/30/21 
f 25/31/25 26/32/26 24/28/24 23/27/23 
f 27/33/27 28/34/28 26/32/26 25/31/25 
f 29/35/29 30/36/30 28/34/28 27/33/27 
f 31/37/31 32/38/32 30/39/30 29/40/29 
f 4/4/4 3/3/3 32/38/32 31/37/31 
f 33/41/33 1/1/1 4/4/4 34/42/34 
f 35/43/35 5/44/5 1/45/1 33/46/33 
f 36/47/36 7/48/7 5/44/5 35/43/35 
f 37/49/37 9/11/9 7/7/7 36/50/36 
f 38/51/38 11/13/11 9/11/9 37/49/37 
f 39/52/39 13/53/13 11/54/11 38/55/38 
f 40/56/40 15/57/15 13/53/13 39/52/39 
f 41/58/41 17/21/17 15/17/15 40/59/40 
f 42/60/42 19/23/19 17/21/17 41/58/41 
f 43/61/43 21/62/21 19/63/19 42/64/42 
f 44/65/44 23/66/23 21/62/21 43/61/43 
f 45/67/45 25/31/25 23/27/23 44/68/44 
f 46/69/46 27/33/27 25/31/25 45/67/45 
f 47/70/47 29/71/29 27/72/27 46/73/46 
f 48/74/48 31/75/31 29/71/29 47/70/47 
f 34/42/34 4/4/4 31/37/31 48/76/48 
f 49/77/49 33/78/33 34/79/34 50/80/50 
f 51/81/51 35/82/35 33/78/33 49/77/49 
f 52/83/52 36/84/36 35/82/35 51/81/51 
f 53/85/53 37/86/37 36/84/36 52/83/52 
f 54/87/54 38/88/38 37/86/37 53/85/53 
f 55/89/55 39/90/39 38/88/38 54/87/54 
f 56/91/56 40/92/40 39/90/39 55/89/55 
f 57/93/57 41/94/41 40/92/40 56/91/56 
f 58/95/58 42/96/42 41/94/41 57/93/57 
f 59/97/59 43/98/43 42/96/42 58/95/58 
f 60/99/60 44/100/44 43/98/43 59/97/59 
f 61/101/61 45/102/45 44/100/44 60/99/60 
f 62/103/62 46/104/46 45/102/45 61/101/61 
f 63/105/63 47/106/47 46/104/46 62/103/62 
f 64/107/64 48/108/48 47/106/47 63/105/63 
f 50/80/50 34/79/34 48/108/48 64/107/64 
f 65/109/65 49/77/49 50/80/50 
f 65/109/65 51/81/51 49/77/49 
f 65/109/65 52/83/52 51/81/51 
f 65/109/65 53/85/53 52/83/52 
f 65/109/65 54/87/54 53/85/53 
f 65/109/65 55/89/55 54/87/54 
f 65/109/65 56/91/56 55/89/55 
f 65/109/65 57/93/57 56/91/56 
f 65/109/65 58/95/58 57/93/57 
f 65/109/65 59/97/59 58/95/58 
f 65/109/65 60/99/60 59/97/59 
f 65/109/65 61/101/61 60/99/60 
f 65/109/65 62/103/62 61/101/61 
f 65/109/65 63/105/63 62/103/62 
f 65/109/65 64/107/64 63/105/63 
f 65/109/65 50/80/50 64/107/64 
s off
f 3/110/66 2/111/66 66/112/66 67/113/66 
f 2/111/67 6/114/67 68/115/67 66/112/67 
f 6/114/68 8/116/68 69/117/68 68/115/68 
f 8/116/69 10/118/69 70/119/69 69/117/69 
f 10/118/70 12/120/70 71/121/70 70/119/70 
f 12/120/71 14/122/71 72/123/71 71/121/71 
f 14/122/72 16/124/72 73/125/72 72/123/72 
f 16/124/73 18/126/73 74/127/73 73/125/73 
f 18/126/74 20/128/74 75/129/74 74/127/74 
f 20/128/75 22/130/75 76/131/75 75/129/75 
f 22/130/76 24/132/76 77/133/76 76/131/76 
f 24/132/77 26/134/77 78/135/77 77/133/77 
f 26/134/78 28/136/78 79/137/78 78/135/78 
f 28/136/79 30/138/79 80/139/79 79/137/79 
f 30/138/80 32/140/80 81/141/80 80/139/80 
f 32/140/81 3/110/81 67/113/81 81/141/81 
s 1
f 82/142/82 83/143/83 84/144/84 85/145/85 
f 83/143/83 86/146/86 87/147/87 84/144/84 
f 86/148/86 88/149/88 89/150/89 87/151/87 
f 88/149/88 90/152/90 91/153/91 89/150/89 
f 90/152/90 92/154/92 93/155/93 91/153/91 
f 92/154/92 94/156/94 95/157/95 93/155/93 
f 94/158/94 96/159/96 97/160/97 95/161/95 
f 96/159/96 98/162/98 99/163/99 97/160/97 
f 98/162/98 100/164/100 101/165/101 99/163/99 
f 100/164/100 102/166/102 103/167/103 101/165/101 
f 102/168/102 104/169/104 105/170/105 103/171/103 
f 104/169/104 106/172/106 107/173/107 105/170/105 
f 106/172/106 108/174/108 109/175/109 107/173/107 
f 108/174/108 110/176/110 111/177/111 109/175/109 
f 110/178/110 112/179/112 113/180/113 111/181/111 
f 112/179/112 82/142/82 85/145/85 113/180/113 
f 66/182/114 83/143/83 82/142/82 67/183/115 
f 68/184/116 86/185/86 83/186/83 66/187/114 
f 69/188/117 88/189/88 86/185/86 68/184/116 
f 70/190/118 90/152/90 88/149/88 69/191/117 
f 71/192/119 92/154/92 90/152/90 70/190/118 
f 72/193/120 94/194/94 92/195/92 71/196/119 
f 73/197/121 96/198/96 94/194/94 72/193/120 
f 74/199/122 98/162/98 96/159/96 73/200/121 
f 75/201/123 100/164/100 98/162/98 74/199/122 
f 76/202/124 102/203/102 100/204/100 75/205/123 
f 77/206/125 104/207/104 102/203/102 76/202/124 
f 78/208/126 106/172/106 104/169/104 77/209/125 
f 79/210/127 108/174/108 106/172/106 78/208/126 
f 80/211/128 110/212/110 108/213/108 79/214/127 
f 81/215/129 112/216/112 110/212/110 80/211/128 
f 67/183/115 82/142/82 112/179/112 81/217/129 
s off
f 85/145/130 84/144/130 114/218/130 115/219/130 
f 84/220/131 87/221/131 116/222/131 114/223/131 
f 87/221/132 89/224/132 117/225/132 116/222/132 
f 89/150/133 91/153/133 118/226/133 117/227/133 
f 91/153/134 93/155/134 119/228/134 118/226/134 
f 93/229/135 95/230/135 120/231/135 119/232/135 
f 95/230/136 97/233/136 121/234/136 120/231/136 
f 97/160/137 99/163/137 122/235/137 121/236/137 
f 99/163/138 101/165/138 123/237/138 122/235/138 
f 101/238/139 103/239/139 124/240/139 123/241/139 
f 103/239/140 105/242/140 125/243/140 124/240/140 
f 105/170/141 107/173/141 126/244/141 125/245/141 
f 107/173/142 109/175/142 127/246/142 126/244/142 
f 109/247/143 111/248/143 128/249/143 127/250/143 
f 111/248/144 113/251/144 129/252/144 128/249/144 
f 113/180/145 85/145/145 115/219/145 129/253/145 
f 116/254/146 117/255/146 118/256/146 115/257/146 
f 118/256/147 119/258/147 120/259/147 122/260/147 
f 120/259/148 121/261/148 122/260/148 
f 122/260/146 123/262/146 124/263/146 126/264/146 
f 124/263/149 125/265/149 126/264/149 
f 126/264/147 127/266/147 128/267/147 115/257/147 
f 128/267/148 129/268/148 115/257/148 
f 122/260/148 126/264/148 115/257/148 118/256/148 
f 114/269/148 116/254/148 115/257/148 
# 117 polygons - 20 triangles

