# 3ds Max Wavefront OBJ Exporter v0.97b - (c)2007 guruware
# File Created: 04.07.2016 17:12:42

mtllib jiaoshipm2.5.mtl

#
# object jiaoshipm2_5
#

v  -14.9998 -0.0000 -3.6927
v  -13.5143 6.5083 -3.6927
v  -13.5143 6.5083 3.6927
v  -14.9998 -0.0000 3.6927
v  -9.3522 11.7275 -3.6927
v  -9.3522 11.7275 3.6927
v  -3.3376 14.6239 -3.6927
v  -3.3376 14.6239 3.6927
v  3.3380 14.6239 -3.6927
v  3.3380 14.6239 3.6927
v  9.3525 11.7275 -3.6927
v  9.3525 11.7275 3.6927
v  13.5147 6.5083 -3.6927
v  13.5147 6.5083 3.6927
v  15.0002 -0.0000 -3.6927
v  15.0002 -0.0000 3.6927
v  13.5147 -6.5083 -3.6927
v  13.5147 -6.5083 3.6927
v  9.3525 -11.7275 -3.6927
v  9.3525 -11.7275 3.6927
v  3.3380 -14.6239 -3.6927
v  3.3380 -14.6239 3.6927
v  -3.3376 -14.6239 -3.6927
v  -3.3376 -14.6239 3.6927
v  -9.3522 -11.7275 -3.6927
v  -9.3522 -11.7275 3.6927
v  -13.5144 -6.5083 -3.6927
v  -13.5144 -6.5083 3.6927
v  -8.9557 -11.2303 -4.3127
v  -3.1961 -14.0039 -4.3127
v  3.1965 -14.0039 -4.3127
v  -14.3639 -0.0000 -4.3127
v  8.9560 -11.2303 -4.3127
v  12.9418 -6.2323 -4.3127
v  12.9417 6.2323 -4.3127
v  14.3642 -0.0000 -4.3127
v  8.9560 11.2303 -4.3127
v  3.1965 14.0039 -4.3127
v  -8.9557 11.2303 -4.3127
v  -3.1961 14.0039 -4.3127
v  -12.9414 6.2323 -4.3127
v  -12.9414 -6.2323 -4.3127
v  -12.9414 6.2323 4.3127
v  -8.9557 11.2303 4.3127
v  -3.1961 14.0039 4.3127
v  -12.9414 -6.2323 4.3127
v  3.1965 14.0039 4.3127
v  8.9560 11.2303 4.3127
v  14.3642 -0.0000 4.3127
v  12.9417 6.2323 4.3127
v  12.9418 -6.2323 4.3127
v  8.9560 -11.2303 4.3127
v  -3.1961 -14.0039 4.3127
v  3.1965 -14.0039 4.3127
v  -8.9557 -11.2303 4.3127
v  -14.3639 -0.0000 4.3127
v  -13.3711 6.4393 -4.1577
v  -14.8408 -0.0000 -4.1577
v  -14.8408 -0.0000 4.1577
v  -13.3711 6.4393 4.1577
v  -9.2530 11.6032 -4.1577
v  -9.2530 11.6032 4.1577
v  -3.3023 14.4689 -4.1577
v  -3.3023 14.4689 4.1577
v  3.3026 14.4689 -4.1577
v  3.3026 14.4689 4.1577
v  9.2534 11.6032 -4.1577
v  9.2534 11.6032 4.1577
v  13.3715 6.4393 -4.1577
v  13.3715 6.4393 4.1577
v  14.8412 -0.0000 -4.1577
v  14.8412 -0.0000 4.1577
v  13.3715 -6.4393 -4.1577
v  13.3715 -6.4393 4.1577
v  9.2534 -11.6032 -4.1577
v  9.2534 -11.6032 4.1577
v  3.3026 -14.4689 -4.1577
v  3.3026 -14.4689 4.1577
v  -3.3023 -14.4689 -4.1577
v  -3.3023 -14.4689 4.1577
v  -9.2530 -11.6032 -4.1577
v  -9.2530 -11.6032 4.1577
v  -13.3711 -6.4393 -4.1577
v  -13.3711 -6.4393 4.1577
# 84 vertices

vn -1.0000 0.0000 -0.0000
vn -0.9010 0.4339 -0.0000
vn -0.6235 0.7818 -0.0000
vn -0.2225 0.9749 -0.0000
vn 0.2225 0.9749 -0.0000
vn 0.6235 0.7818 -0.0000
vn 0.9010 0.4339 -0.0000
vn 1.0000 0.0000 -0.0000
vn 0.9010 -0.4339 -0.0000
vn 0.6235 -0.7818 -0.0000
vn 0.2225 -0.9749 -0.0000
vn -0.2225 -0.9749 -0.0000
vn -0.6235 -0.7818 -0.0000
vn -0.9010 -0.4339 -0.0000
vn 0.0000 0.0000 -1.0000
vn -0.0000 0.0000 -1.0000
vn -0.0000 -0.0000 1.0000
vn 0.0000 -0.0000 1.0000
vn 0.0000 0.0000 1.0000
vn -0.0000 0.0000 1.0000
vn -0.9249 0.2111 -0.3162
vn -0.9249 0.2111 0.3162
vn -0.7417 0.5915 -0.3162
vn -0.7417 0.5915 0.3162
vn -0.4116 0.8547 -0.3162
vn -0.4116 0.8547 0.3162
vn 0.0000 0.9487 -0.3162
vn 0.0000 0.9487 0.3162
vn 0.4116 0.8547 -0.3162
vn 0.4116 0.8547 0.3162
vn 0.7417 0.5915 -0.3162
vn 0.7417 0.5915 0.3162
vn 0.9249 0.2111 -0.3162
vn 0.9249 0.2111 0.3162
vn 0.9249 -0.2111 -0.3162
vn 0.9249 -0.2111 0.3162
vn 0.7417 -0.5915 -0.3162
vn 0.7417 -0.5915 0.3162
vn 0.4116 -0.8547 -0.3162
vn 0.4116 -0.8547 0.3162
vn 0.0000 -0.9487 -0.3162
vn 0.0000 -0.9487 0.3162
vn -0.4116 -0.8547 -0.3162
vn -0.4116 -0.8547 0.3162
vn -0.7417 -0.5915 -0.3162
vn -0.7417 -0.5915 0.3162
vn -0.9249 -0.2111 -0.3162
vn -0.9249 -0.2111 0.3162
vn -0.3083 0.0704 -0.9487
vn -0.3083 0.0704 0.9487
vn -0.2472 0.1972 -0.9487
vn -0.2472 0.1972 0.9487
vn -0.1372 0.2849 -0.9487
vn -0.1372 0.2849 0.9487
vn 0.0000 0.3162 -0.9487
vn 0.0000 0.3162 0.9487
vn 0.1372 0.2849 -0.9487
vn 0.1372 0.2849 0.9487
vn 0.2472 0.1972 -0.9487
vn 0.2472 0.1972 0.9487
vn 0.3083 0.0704 -0.9487
vn 0.3083 0.0704 0.9487
vn 0.3083 -0.0704 -0.9487
vn 0.3083 -0.0704 0.9487
vn 0.2472 -0.1972 -0.9487
vn 0.2472 -0.1972 0.9487
vn 0.1372 -0.2849 -0.9487
vn 0.1372 -0.2849 0.9487
vn 0.0000 -0.3162 -0.9487
vn 0.0000 -0.3162 0.9487
vn -0.1372 -0.2849 -0.9487
vn -0.1372 -0.2849 0.9487
vn -0.2472 -0.1972 -0.9487
vn -0.2472 -0.1972 0.9487
vn -0.3083 -0.0704 -0.9487
vn -0.3083 -0.0704 0.9487
# 76 vertex normals

vt 0.5089 0.7155 0.0000
vt 0.5089 0.6035 0.0000
vt 0.6360 0.6035 0.0000
vt 0.6360 0.7155 0.0000
vt 0.5089 0.5137 0.0000
vt 0.6360 0.5137 0.0000
vt 0.6545 0.8357 0.0000
vt 0.6545 0.7321 0.0000
vt 0.7817 0.7321 0.0000
vt 0.7817 0.8357 0.0000
vt 0.6545 0.6172 0.0000
vt 0.7817 0.6172 0.0000
vt 0.6545 0.5137 0.0000
vt 0.7817 0.5137 0.0000
vt 0.1361 0.5137 0.0000
vt 0.1361 0.6035 0.0000
vt 0.0090 0.6035 0.0000
vt 0.0090 0.5137 0.0000
vt 0.1361 0.7155 0.0000
vt 0.0090 0.7155 0.0000
vt 0.1361 0.8276 0.0000
vt 0.0090 0.8276 0.0000
vt 0.1361 0.9174 0.0000
vt 0.0090 0.9174 0.0000
vt 0.2818 0.5137 0.0000
vt 0.2818 0.6172 0.0000
vt 0.1547 0.6172 0.0000
vt 0.1547 0.5137 0.0000
vt 0.2818 0.7321 0.0000
vt 0.1547 0.7321 0.0000
vt 0.2818 0.8357 0.0000
vt 0.1547 0.8357 0.0000
vt 0.5089 0.9174 0.0000
vt 0.5089 0.8276 0.0000
vt 0.6360 0.8276 0.0000
vt 0.6360 0.9174 0.0000
vt 0.4434 0.1023 0.0000
vt 0.4911 0.2015 0.0000
vt 0.4911 0.3115 0.0000
vt 0.2501 0.0092 0.0000
vt 0.4434 0.4107 0.0000
vt 0.3574 0.4793 0.0000
vt 0.1428 0.4793 0.0000
vt 0.2501 0.5038 0.0000
vt 0.0568 0.4107 0.0000
vt 0.0090 0.3115 0.0000
vt 0.0568 0.1023 0.0000
vt 0.0090 0.2015 0.0000
vt 0.1428 0.0337 0.0000
vt 0.3574 0.0337 0.0000
vt 0.6426 0.4793 0.0000
vt 0.5566 0.4107 0.0000
vt 0.5089 0.3115 0.0000
vt 0.8572 0.4793 0.0000
vt 0.5089 0.2015 0.0000
vt 0.5566 0.1023 0.0000
vt 0.7499 0.0092 0.0000
vt 0.6426 0.0337 0.0000
vt 0.8572 0.0337 0.0000
vt 0.9432 0.1023 0.0000
vt 0.9910 0.3115 0.0000
vt 0.9910 0.2015 0.0000
vt 0.9432 0.4107 0.0000
vt 0.7499 0.5038 0.0000
vt 0.5008 0.6047 0.0000
vt 0.5008 0.7155 0.0000
vt 0.6440 0.7155 0.0000
vt 0.6440 0.6047 0.0000
vt 0.5008 0.5158 0.0000
vt 0.6440 0.5158 0.0000
vt 0.6465 0.7315 0.0000
vt 0.6465 0.8339 0.0000
vt 0.7897 0.8339 0.0000
vt 0.7897 0.7315 0.0000
vt 0.6465 0.6178 0.0000
vt 0.7897 0.6178 0.0000
vt 0.6465 0.5154 0.0000
vt 0.7897 0.5154 0.0000
vt 0.1441 0.6047 0.0000
vt 0.1441 0.5158 0.0000
vt 0.0010 0.5158 0.0000
vt 0.0010 0.6047 0.0000
vt 0.1441 0.7155 0.0000
vt 0.0010 0.7155 0.0000
vt 0.1441 0.8264 0.0000
vt 0.0010 0.8264 0.0000
vt 0.1441 0.9153 0.0000
vt 0.0010 0.9153 0.0000
vt 0.2898 0.6178 0.0000
vt 0.2898 0.5154 0.0000
vt 0.1467 0.5154 0.0000
vt 0.1467 0.6178 0.0000
vt 0.2898 0.7315 0.0000
vt 0.1467 0.7315 0.0000
vt 0.2898 0.8339 0.0000
vt 0.1467 0.8339 0.0000
vt 0.5008 0.8264 0.0000
vt 0.5008 0.9153 0.0000
vt 0.6440 0.9153 0.0000
vt 0.6440 0.8264 0.0000
vt 0.1392 0.0263 0.0000
vt 0.2501 0.0010 0.0000
vt 0.7499 0.5120 0.0000
vt 0.6391 0.4867 0.0000
vt 0.0503 0.0972 0.0000
vt 0.5502 0.4158 0.0000
vt 0.0010 0.1996 0.0000
vt 0.5008 0.3133 0.0000
vt 0.0010 0.3133 0.0000
vt 0.5008 0.1996 0.0000
vt 0.0503 0.4158 0.0000
vt 0.5502 0.0972 0.0000
vt 0.1392 0.4867 0.0000
vt 0.6391 0.0263 0.0000
vt 0.2501 0.5120 0.0000
vt 0.7499 0.0010 0.0000
vt 0.3609 0.4867 0.0000
vt 0.8608 0.0263 0.0000
vt 0.4498 0.4158 0.0000
vt 0.9497 0.0972 0.0000
vt 0.4992 0.3133 0.0000
vt 0.9990 0.1996 0.0000
vt 0.4992 0.1996 0.0000
vt 0.9990 0.3133 0.0000
vt 0.4498 0.0972 0.0000
vt 0.9497 0.4158 0.0000
vt 0.3609 0.0263 0.0000
vt 0.8608 0.4867 0.0000
# 128 texture coords

g jiaoshipm2_5
usemtl jiaoshipm
s 8
f 4/4/1 3/3/2 2/2/2 1/1/1 
f 3/3/2 6/6/3 5/5/3 2/2/2 
f 6/10/3 8/9/4 7/8/4 5/7/3 
f 8/9/4 10/12/5 9/11/5 7/8/4 
f 10/12/5 12/14/6 11/13/6 9/11/5 
f 12/18/6 14/17/7 13/16/7 11/15/6 
f 14/17/7 16/20/8 15/19/8 13/16/7 
f 16/20/8 18/22/9 17/21/9 15/19/8 
f 18/22/9 20/24/10 19/23/10 17/21/9 
f 20/28/10 22/27/11 21/26/11 19/25/10 
f 22/27/11 24/30/12 23/29/12 21/26/11 
f 24/30/12 26/32/13 25/31/13 23/29/12 
f 26/36/13 28/35/14 27/34/14 25/33/13 
f 28/35/14 4/4/1 1/1/1 27/34/14 
s 1
f 32/40/15 31/39/16 30/38/15 29/37/15 
f 35/43/16 34/42/16 33/41/15 31/39/16 
f 35/43/16 36/44/16 34/42/16 
f 39/47/16 38/46/15 37/45/15 35/43/16 
f 39/47/16 40/48/15 38/46/15 
f 35/43/16 32/40/15 41/49/16 39/47/16 
f 32/40/15 35/43/16 31/39/16 
f 32/40/15 29/37/15 42/50/15 
f 46/54/17 45/53/17 44/52/18 43/51/17 
f 49/57/18 48/56/18 47/55/19 45/53/17 
f 49/57/18 50/58/19 48/56/18 
f 53/61/18 52/60/17 51/59/20 49/57/18 
f 53/61/18 54/62/19 52/60/17 
f 49/57/18 46/54/17 55/63/17 53/61/18 
f 46/54/17 49/57/18 45/53/17 
f 46/54/17 43/51/17 56/64/19 
s off
f 58/66/21 1/1/21 2/2/21 57/65/21 
f 60/68/22 3/3/22 4/4/22 59/67/22 
f 57/65/23 2/2/23 5/5/23 61/69/23 
f 62/70/24 6/6/24 3/3/24 60/68/24 
f 61/72/25 5/7/25 7/8/25 63/71/25 
f 64/74/26 8/9/26 6/10/26 62/73/26 
f 63/71/27 7/8/27 9/11/27 65/75/27 
f 66/76/28 10/12/28 8/9/28 64/74/28 
f 65/75/29 9/11/29 11/13/29 67/77/29 
f 68/78/30 12/14/30 10/12/30 66/76/30 
f 67/80/31 11/15/31 13/16/31 69/79/31 
f 70/82/32 14/17/32 12/18/32 68/81/32 
f 69/79/33 13/16/33 15/19/33 71/83/33 
f 72/84/34 16/20/34 14/17/34 70/82/34 
f 71/83/35 15/19/35 17/21/35 73/85/35 
f 74/86/36 18/22/36 16/20/36 72/84/36 
f 73/85/37 17/21/37 19/23/37 75/87/37 
f 76/88/38 20/24/38 18/22/38 74/86/38 
f 75/90/39 19/25/39 21/26/39 77/89/39 
f 78/92/40 22/27/40 20/28/40 76/91/40 
f 77/89/41 21/26/41 23/29/41 79/93/41 
f 80/94/42 24/30/42 22/27/42 78/92/42 
f 79/93/43 23/29/43 25/31/43 81/95/43 
f 82/96/44 26/32/44 24/30/44 80/94/44 
f 81/98/45 25/33/45 27/34/45 83/97/45 
f 84/100/46 28/35/46 26/36/46 82/99/46 
f 83/97/47 27/34/47 1/1/47 58/66/47 
f 59/67/48 4/4/48 28/35/48 84/100/48 
f 32/40/49 58/102/49 57/101/49 41/49/49 
f 43/51/50 60/104/50 59/103/50 56/64/50 
f 41/49/51 57/101/51 61/105/51 39/47/51 
f 44/52/52 62/106/52 60/104/52 43/51/52 
f 39/47/53 61/105/53 63/107/53 40/48/53 
f 45/53/54 64/108/54 62/106/54 44/52/54 
f 40/48/55 63/107/55 65/109/55 38/46/55 
f 47/55/56 66/110/56 64/108/56 45/53/56 
f 38/46/57 65/109/57 67/111/57 37/45/57 
f 48/56/58 68/112/58 66/110/58 47/55/58 
f 37/45/59 67/111/59 69/113/59 35/43/59 
f 50/58/60 70/114/60 68/112/60 48/56/60 
f 35/43/61 69/113/61 71/115/61 36/44/61 
f 49/57/62 72/116/62 70/114/62 50/58/62 
f 36/44/63 71/115/63 73/117/63 34/42/63 
f 51/59/64 74/118/64 72/116/64 49/57/64 
f 34/42/65 73/117/65 75/119/65 33/41/65 
f 52/60/66 76/120/66 74/118/66 51/59/66 
f 33/41/67 75/119/67 77/121/67 31/39/67 
f 54/62/68 78/122/68 76/120/68 52/60/68 
f 31/39/69 77/121/69 79/123/69 30/38/69 
f 53/61/70 80/124/70 78/122/70 54/62/70 
f 30/38/71 79/123/71 81/125/71 29/37/71 
f 55/63/72 82/126/72 80/124/72 53/61/72 
f 29/37/73 81/125/73 83/127/73 42/50/73 
f 46/54/74 84/128/74 82/126/74 55/63/74 
f 42/50/75 83/127/75 58/102/75 32/40/75 
f 56/64/76 59/103/76 84/128/76 46/54/76 
# 78 polygons - 8 triangles

