# 3ds Max Wavefront OBJ Exporter v0.97b - (c)2007 guruware
# File Created: 05.07.2016 11:58:49

mtllib jifangkongtiao.mtl

#
# object jifangkongtiao
#

v  -38.3584 0.0000 -14.7786
v  -21.8352 0.0000 -28.6432
v  -15.7953 0.0000 -32.3983
v  -10.0033 0.0000 -33.3194
v  -4.4593 0.0000 -31.4066
v  0.8367 0.0000 -26.6597
v  26.4000 0.0000 3.8054
v  30.1551 0.0000 9.8453
v  31.0762 0.0000 15.6372
v  29.1633 0.0000 21.1812
v  24.4164 0.0000 26.4773
v  -14.7786 0.0000 38.3584
v  7.8932 0.0000 40.3419
v  1.8534 0.0000 44.0970
v  -3.9386 0.0000 45.0181
v  -9.4826 0.0000 43.1052
v  -43.1052 0.0000 -9.4826
v  -45.0181 0.0000 -3.9386
v  -44.0970 0.0000 1.8534
v  -40.3419 0.0000 7.8932
v  -40.3419 269.8302 7.8932
v  -14.7786 269.8302 38.3584
v  -9.4826 269.8302 43.1052
v  -3.9386 269.8302 45.0181
v  1.8534 269.8302 44.0970
v  7.8932 269.8302 40.3419
v  24.4164 269.8302 26.4773
v  29.1633 269.8302 21.1812
v  31.0762 269.8302 15.6372
v  30.1551 269.8302 9.8453
v  26.4000 269.8302 3.8054
v  -21.8352 269.8302 -28.6432
v  0.8367 269.8302 -26.6597
v  -4.4593 269.8302 -31.4066
v  -10.0033 269.8302 -33.3194
v  -15.7953 269.8302 -32.3983
v  -44.0970 269.8302 1.8534
v  -45.0181 269.8302 -3.9386
v  -43.1052 269.8302 -9.4826
v  -38.3584 269.8302 -14.7786
# 40 vertices

vn 0.0000 -1.0000 -0.0000
vn 0.0000 1.0000 -0.0000
vn -0.8097 0.0000 0.5869
vn -0.7186 0.0000 0.6955
vn 0.5869 0.0000 0.8097
vn 0.6955 0.0000 0.7186
vn 0.8097 0.0000 -0.5869
vn 0.7186 0.0000 -0.6955
vn -0.5869 0.0000 -0.8097
vn -0.6955 0.0000 -0.7186
vn -0.5068 0.0000 0.8620
vn -0.9370 0.0000 0.3494
vn 0.8620 0.0000 0.5068
vn 0.5068 0.0000 -0.8620
vn -0.0872 0.0000 0.9962
vn 0.3494 0.0000 0.9370
vn -0.9962 0.0000 -0.0872
vn -0.8620 0.0000 -0.5068
vn 0.9962 0.0000 0.0872
vn 0.9370 0.0000 -0.3494
vn 0.0872 0.0000 -0.9962
vn -0.3494 0.0000 -0.9370
# 22 vertex normals

vt 0.8629 0.0010 0.0000
vt 0.9408 0.0010 0.0000
vt 0.9663 0.0046 0.0000
vt 0.9845 0.0155 0.0000
vt 0.9954 0.0337 0.0000
vt 0.9990 0.0592 0.0000
vt 0.9990 0.2029 0.0000
vt 0.9954 0.2284 0.0000
vt 0.9845 0.2466 0.0000
vt 0.9663 0.2575 0.0000
vt 0.9408 0.2611 0.0000
vt 0.8047 0.2029 0.0000
vt 0.8629 0.2611 0.0000
vt 0.8374 0.2575 0.0000
vt 0.8192 0.2466 0.0000
vt 0.8083 0.2284 0.0000
vt 0.8374 0.0046 0.0000
vt 0.8192 0.0155 0.0000
vt 0.8083 0.0337 0.0000
vt 0.8047 0.0592 0.0000
vt 0.9990 0.3211 0.0000
vt 0.9990 0.4649 0.0000
vt 0.9954 0.4903 0.0000
vt 0.9845 0.5085 0.0000
vt 0.9663 0.5194 0.0000
vt 0.9408 0.5231 0.0000
vt 0.8629 0.5231 0.0000
vt 0.8374 0.5194 0.0000
vt 0.8192 0.5085 0.0000
vt 0.8083 0.4903 0.0000
vt 0.8047 0.4649 0.0000
vt 0.8629 0.2630 0.0000
vt 0.8047 0.3211 0.0000
vt 0.8083 0.2957 0.0000
vt 0.8192 0.2775 0.0000
vt 0.8374 0.2666 0.0000
vt 0.9954 0.2957 0.0000
vt 0.9845 0.2775 0.0000
vt 0.9663 0.2666 0.0000
vt 0.9408 0.2630 0.0000
vt 0.4222 0.9764 0.0000
vt 0.2784 0.9764 0.0000
vt 0.2784 0.0010 0.0000
vt 0.4222 0.0010 0.0000
vt 0.7583 0.9764 0.0000
vt 0.6803 0.9764 0.0000
vt 0.6803 0.0010 0.0000
vt 0.7583 0.0010 0.0000
vt 0.1884 0.9764 0.0000
vt 0.0446 0.9764 0.0000
vt 0.0446 0.0010 0.0000
vt 0.1884 0.0010 0.0000
vt 0.5902 0.9764 0.0000
vt 0.5123 0.9764 0.0000
vt 0.5123 0.0010 0.0000
vt 0.5902 0.0010 0.0000
vt 0.2530 0.0010 0.0000
vt 0.2530 0.9764 0.0000
vt 0.4476 0.9764 0.0000
vt 0.4476 0.0010 0.0000
vt 0.6548 0.0010 0.0000
vt 0.6548 0.9764 0.0000
vt 0.0192 0.0010 0.0000
vt 0.0192 0.9764 0.0000
vt 0.2348 0.0010 0.0000
vt 0.2348 0.9764 0.0000
vt 0.7837 0.0010 0.0000
vt 0.8019 0.0010 0.0000
vt 0.8019 0.9764 0.0000
vt 0.7837 0.9764 0.0000
vt 0.4658 0.9764 0.0000
vt 0.4658 0.0010 0.0000
vt 0.4868 0.9764 0.0000
vt 0.4686 0.9764 0.0000
vt 0.4686 0.0010 0.0000
vt 0.4868 0.0010 0.0000
vt 0.6367 0.0010 0.0000
vt 0.6367 0.9764 0.0000
vt 0.2138 0.0010 0.0000
vt 0.2320 0.0010 0.0000
vt 0.2320 0.9764 0.0000
vt 0.2138 0.9764 0.0000
vt 0.0010 0.0010 0.0000
vt 0.0010 0.9764 0.0000
vt 0.6157 0.0010 0.0000
vt 0.6339 0.0010 0.0000
vt 0.6339 0.9764 0.0000
vt 0.6157 0.9764 0.0000
# 88 texture coords

g jifangkongtiao
usemtl jiaoshikongtiao
s 2
f 1/1/1 2/2/1 3/3/1 4/4/1 
f 1/1/1 4/4/1 5/5/1 6/6/1 
f 6/6/1 7/7/1 8/8/1 9/9/1 
f 6/6/1 9/9/1 10/10/1 11/11/1 
f 1/1/1 6/6/1 11/11/1 12/12/1 
f 11/11/1 13/13/1 14/14/1 15/15/1 
f 11/11/1 15/15/1 16/16/1 12/12/1 
f 17/17/1 1/1/1 12/12/1 18/18/1 
f 19/19/1 18/18/1 12/12/1 20/20/1 
s 4
f 21/21/2 22/22/2 23/23/2 24/24/2 
f 21/21/2 24/24/2 25/25/2 26/26/2 
f 26/26/2 27/27/2 28/28/2 29/29/2 
f 26/26/2 29/29/2 30/30/2 31/31/2 
f 21/21/2 26/26/2 31/31/2 32/32/2 
f 31/31/2 33/33/2 34/34/2 35/35/2 
f 31/31/2 35/35/2 36/36/2 32/32/2 
f 37/37/2 21/21/2 32/32/2 38/38/2 
f 39/39/2 38/38/2 32/32/2 40/40/2 
s 9
f 20/41/3 12/42/4 22/43/4 21/44/3 
s 17
f 13/45/5 11/46/6 27/47/6 26/48/5 
s 33
f 7/49/7 6/50/8 33/51/8 31/52/7 
s 65
f 2/53/9 1/54/10 40/55/10 32/56/9 
s 1
f 23/57/11 22/43/4 12/42/4 16/58/11 
f 19/59/12 20/41/3 21/44/3 37/60/12 
f 28/61/13 27/47/6 11/46/6 10/62/13 
f 34/63/14 33/51/8 6/50/8 5/64/14 
f 24/65/15 23/57/11 16/58/11 15/66/15 
f 25/67/16 24/68/15 15/69/15 14/70/16 
f 26/48/5 25/67/16 14/70/16 13/45/5 
f 18/71/17 19/59/12 37/60/12 38/72/17 
f 17/73/18 18/74/17 38/75/17 39/76/18 
f 1/54/10 17/73/18 39/76/18 40/55/10 
f 29/77/19 28/61/13 10/62/13 9/78/19 
f 30/79/20 29/80/19 9/81/19 8/82/20 
f 31/52/7 30/79/20 8/82/20 7/49/7 
f 35/83/21 34/63/14 5/64/14 4/84/21 
f 36/85/22 35/86/21 4/87/21 3/88/22 
f 32/56/9 36/85/22 3/88/22 2/53/9 
# 38 polygons

