# 3ds Max Wavefront OBJ Exporter v0.97b - (c)2007 guruware
# File Created: 08.08.2016 13:00:06

mtllib men.mtl

#
# object men
#

v  0.2496 0.0000 190.2204
v  -14.7504 0.0000 190.2204
v  -14.7505 0.0000 -0.0729
v  0.2495 0.0000 -0.0729
v  0.2496 349.4051 190.2204
v  0.2495 349.4051 -0.0729
v  -14.7505 349.4051 -0.0729
v  -14.7504 349.4051 190.2204
# 8 vertices

vn 0.0000 -1.0000 -0.0000
vn 0.0000 1.0000 -0.0000
vn -1.0000 0.0000 0.0000
vn 0.0000 0.0000 1.0000
vn 1.0000 0.0000 -0.0000
vn -0.0000 0.0000 -1.0000
# 6 vertex normals

vt 0.0010 0.9990 0.0000
vt 0.0010 0.9643 0.0000
vt 0.4409 0.9643 0.0000
vt 0.4409 0.9990 0.0000
vt 0.4435 0.9643 0.0000
vt 0.8834 0.9643 0.0000
vt 0.8834 0.9990 0.0000
vt 0.4435 0.9990 0.0000
vt 0.8086 0.4444 0.0000
vt 0.8086 0.8843 0.0000
vt 0.0010 0.8843 0.0000
vt 0.0010 0.4444 0.0000
vt 0.8086 0.9261 0.0000
vt 0.8086 0.9608 0.0000
vt 0.0010 0.9608 0.0000
vt 0.0010 0.9261 0.0000
vt 0.8086 0.0010 0.0000
vt 0.8086 0.4409 0.0000
vt 0.0010 0.4409 0.0000
vt 0.0010 0.0010 0.0000
vt 0.8086 0.8878 0.0000
vt 0.8086 0.9225 0.0000
vt 0.0010 0.9225 0.0000
vt 0.0010 0.8878 0.0000
# 24 texture coords

g men
usemtl jiaoshimen2
s 2
f 1/1/1 2/2/1 3/3/1 4/4/1 
s 4
f 5/5/2 6/6/2 7/7/2 8/8/2 
s 8
f 8/9/3 7/10/3 3/11/3 2/12/3 
s 16
f 5/13/4 8/14/4 2/15/4 1/16/4 
s 32
f 6/17/5 5/18/5 1/19/5 4/20/5 
s 64
f 7/21/6 6/22/6 4/23/6 3/24/6 
# 6 polygons

