# 3ds Max Wavefront OBJ Exporter v0.97b - (c)2007 guruware
# File Created: 04.07.2016 11:14:23

mtllib ding.mtl

#
# object ding
#

v  4241.3945 43.0608 -3299.2957
v  4241.3945 43.0613 -2795.7239
v  7982.4736 43.0610 -393.1142
v  8439.6719 43.0608 -385.9142
v  -4196.1353 43.0613 -2795.7847
v  -4196.1353 43.0608 -3299.2180
v  -8439.6738 43.0608 -385.9142
v  -7982.4741 43.0610 -393.1142
v  8439.6719 43.0605 -3613.5776
v  8439.6719 43.0610 3613.5779
v  8439.6738 43.0610 360.6154
v  7982.4736 43.0610 360.6154
v  -2423.3403 43.0613 -2795.7847
v  2499.9116 43.0613 -2795.7239
v  -7982.4741 43.0610 360.6154
v  -8439.6738 43.0610 360.6154
v  -8439.6738 43.0610 3613.5779
v  2499.9116 43.0608 -3299.2180
v  -2423.3403 43.0608 -3299.2957
v  8439.6719 0.1787 3613.5779
v  8439.6738 0.1787 360.6154
v  7982.4736 0.1787 360.6154
v  7982.4736 0.1787 -393.1142
v  8439.6719 0.1785 -385.9142
v  8439.6719 0.1782 -3613.5776
v  -8439.6738 0.1782 -3613.5776
v  -8439.6738 43.0605 -3613.5776
v  -8439.6738 0.1785 -385.9142
v  -7982.4741 0.1787 -393.1142
v  -7982.4741 0.1787 360.6154
v  -8439.6738 0.1787 360.6154
v  -8439.6738 0.1787 3613.5779
v  -4196.1353 0.1787 -2795.7847
v  -4196.1353 0.1785 -3299.2180
v  -2423.3403 0.1785 -3299.2957
v  -2423.3403 0.1787 -2795.7847
v  4241.3945 0.1787 -2795.7239
v  2499.9116 0.1787 -2795.7239
v  2499.9116 0.1785 -3299.2180
v  4241.3945 0.1785 -3299.2957
# 40 vertices

vn 0.0000 1.0000 -0.0000
vn -0.0000 1.0000 -0.0000
vn -0.0000 1.0000 0.0000
vn 1.0000 0.0000 0.0000
vn 0.0000 0.0000 -1.0000
vn 1.0000 0.0000 -0.0000
vn -0.0178 0.0000 0.9998
vn -1.0000 0.0000 -0.0000
vn 0.0178 0.0000 0.9998
vn 0.0000 0.0000 1.0000
vn 0.0001 0.0000 1.0000
vn 0.0000 1.0000 0.0000
# 12 vertex normals

vt 0.0221 0.7508 0.0000
vt 0.0558 0.7508 0.0000
vt 0.2168 0.9720 0.0000
vt 0.2173 0.9990 0.0000
vt 0.0558 0.2519 0.0000
vt 0.0221 0.2519 0.0000
vt 0.2173 0.0010 0.0000
vt 0.2168 0.0280 0.0000
vt 0.0010 0.9990 0.0000
vt 0.4854 0.9990 0.0000
vt 0.2674 0.9990 0.0000
vt 0.2674 0.9720 0.0000
vt 0.0558 0.3567 0.0000
vt 0.0558 0.6478 0.0000
vt 0.2674 0.0280 0.0000
vt 0.2674 0.0010 0.0000
vt 0.4854 0.0010 0.0000
vt 0.0221 0.6478 0.0000
vt 0.0221 0.3567 0.0000
vt 0.4987 0.2204 0.0000
vt 0.4987 0.4384 0.0000
vt 0.4956 0.4384 0.0000
vt 0.4956 0.2204 0.0000
vt 0.4987 0.6504 0.0000
vt 0.4987 0.6775 0.0000
vt 0.4956 0.6775 0.0000
vt 0.4956 0.6504 0.0000
vt 0.5120 0.0010 0.0000
vt 0.5120 0.0515 0.0000
vt 0.5090 0.0515 0.0000
vt 0.5090 0.0010 0.0000
vt 0.5209 0.0362 0.0000
vt 0.5209 0.0632 0.0000
vt 0.5178 0.0632 0.0000
vt 0.5178 0.0362 0.0000
vt 0.5031 0.0010 0.0000
vt 0.5031 0.2173 0.0000
vt 0.5001 0.2173 0.0000
vt 0.5001 0.0010 0.0000
vt 0.4898 0.0010 0.0000
vt 0.4898 0.9990 0.0000
vt 0.4868 0.9990 0.0000
vt 0.4868 0.0010 0.0000
vt 0.5031 0.2187 0.0000
vt 0.5031 0.4350 0.0000
vt 0.5001 0.4350 0.0000
vt 0.5001 0.2187 0.0000
vt 0.5031 0.5408 0.0000
vt 0.5031 0.5679 0.0000
vt 0.5001 0.5679 0.0000
vt 0.5001 0.5408 0.0000
vt 0.5076 0.1072 0.0000
vt 0.5076 0.1577 0.0000
vt 0.5045 0.1577 0.0000
vt 0.5045 0.1072 0.0000
vt 0.5076 0.1591 0.0000
vt 0.5076 0.1862 0.0000
vt 0.5045 0.1862 0.0000
vt 0.5045 0.1591 0.0000
vt 0.4987 0.0010 0.0000
vt 0.4987 0.2190 0.0000
vt 0.4956 0.2190 0.0000
vt 0.4956 0.0010 0.0000
vt 0.4942 0.0010 0.0000
vt 0.4942 0.9990 0.0000
vt 0.4912 0.9990 0.0000
vt 0.4912 0.0010 0.0000
vt 0.5164 0.0713 0.0000
vt 0.5164 0.1050 0.0000
vt 0.5134 0.1050 0.0000
vt 0.5134 0.0713 0.0000
vt 0.5076 0.0010 0.0000
vt 0.5076 0.1058 0.0000
vt 0.5045 0.1058 0.0000
vt 0.5045 0.0010 0.0000
vt 0.5164 0.0362 0.0000
vt 0.5164 0.0699 0.0000
vt 0.5134 0.0699 0.0000
vt 0.5134 0.0362 0.0000
vt 0.4987 0.4398 0.0000
vt 0.4987 0.5447 0.0000
vt 0.4956 0.5447 0.0000
vt 0.4956 0.4398 0.0000
vt 0.4987 0.5461 0.0000
vt 0.4987 0.6490 0.0000
vt 0.4956 0.6490 0.0000
vt 0.4956 0.5461 0.0000
vt 0.5209 0.0010 0.0000
vt 0.5209 0.0347 0.0000
vt 0.5178 0.0347 0.0000
vt 0.5178 0.0010 0.0000
vt 0.5031 0.4365 0.0000
vt 0.5031 0.5394 0.0000
vt 0.5001 0.5394 0.0000
vt 0.5001 0.4365 0.0000
vt 0.5164 0.0010 0.0000
vt 0.5164 0.0347 0.0000
vt 0.5134 0.0347 0.0000
vt 0.5134 0.0010 0.0000
vt 0.0010 0.0010 0.0000
# 100 texture coords

g ding
usemtl ding
s off
f 1/1/1 2/2/1 3/3/1 4/4/1 
f 5/5/2 6/6/2 7/7/2 8/8/2 
f 9/9/1 1/1/1 4/4/1 
f 10/10/1 11/11/1 12/12/1 13/13/1 
f 12/12/3 14/14/3 13/13/3 
f 10/10/3 13/13/3 15/15/3 16/16/3 
f 10/10/1 16/16/1 17/17/1 
f 14/14/1 18/18/1 19/19/1 13/13/1 
f 20/20/4 21/21/4 11/22/4 10/23/4 
f 21/24/5 22/25/5 12/26/5 11/27/5 
f 22/28/6 23/29/6 3/30/6 12/31/6 
f 23/32/7 24/33/7 4/34/7 3/35/7 
f 24/36/6 25/37/6 9/38/6 4/39/6 
f 25/40/5 26/41/5 27/42/5 9/43/5 
f 26/44/8 28/45/8 7/46/8 27/47/8 
f 28/48/9 29/49/9 8/50/9 7/51/9 
f 29/52/8 30/53/8 15/54/8 8/55/8 
f 30/56/5 31/57/5 16/58/5 15/59/5 
f 31/60/8 32/61/8 17/62/8 16/63/8 
f 32/64/10 20/65/10 10/66/10 17/67/10 
f 33/68/6 34/69/6 6/70/6 5/71/6 
f 34/72/10 35/73/10 19/74/10 6/75/10 
f 35/76/8 36/77/8 13/78/8 19/79/8 
f 36/80/5 33/81/5 5/82/5 13/83/5 
f 37/84/5 38/85/5 14/86/5 2/87/5 
f 38/88/6 39/89/6 18/90/6 14/91/6 
f 39/92/11 40/93/11 1/94/11 18/95/11 
f 40/96/8 37/97/8 2/98/8 1/99/8 
f 27/100/2 6/6/2 19/19/2 1/1/2 
f 19/19/1 18/18/1 1/1/1 
f 9/9/1 27/100/1 1/1/1 
f 27/100/2 7/7/2 6/6/2 
f 12/12/12 3/3/12 2/2/12 14/14/12 
f 5/5/3 8/8/3 15/15/3 13/13/3 
# 28 polygons - 6 triangles

